<mxfile host="app.diagrams.net" modified="2023-11-25T00:10:11.647Z" agent="Mozilla/5.0 (Macintosh; Intel Mac OS X 10_15_7) AppleWebKit/537.36 (KHTML, like Gecko) Chrome/117.0.0.0 Safari/537.36" etag="k-S0plrP9cZsBEq1QqdR" version="22.1.3" type="device" pages="2">
  <diagram name="Page-1" id="Y9o0O3YZo-LNZ_YcxVT4">
    <mxGraphModel dx="3547" dy="1674" grid="1" gridSize="10" guides="1" tooltips="1" connect="1" arrows="1" fold="1" page="1" pageScale="1" pageWidth="850" pageHeight="1100" math="0" shadow="0">
      <root>
        <mxCell id="0" />
        <mxCell id="1" parent="0" />
        <mxCell id="Hf3mVa162-UcPIvB1rea-2" value="" style="shape=table;startSize=0;container=1;collapsible=0;childLayout=tableLayout;" parent="1" vertex="1">
          <mxGeometry x="150" y="72" width="130" height="30" as="geometry" />
        </mxCell>
        <mxCell id="Hf3mVa162-UcPIvB1rea-3" value="" style="shape=tableRow;horizontal=0;startSize=0;swimlaneHead=0;swimlaneBody=0;strokeColor=inherit;top=0;left=0;bottom=0;right=0;collapsible=0;dropTarget=0;fillColor=none;points=[[0,0.5],[1,0.5]];portConstraint=eastwest;" parent="Hf3mVa162-UcPIvB1rea-2" vertex="1">
          <mxGeometry width="130" height="30" as="geometry" />
        </mxCell>
        <mxCell id="Hf3mVa162-UcPIvB1rea-4" value="&lt;u&gt;B#&lt;/u&gt;" style="shape=partialRectangle;html=1;whiteSpace=wrap;connectable=0;strokeColor=inherit;overflow=hidden;fillColor=none;top=0;left=0;bottom=0;right=0;pointerEvents=1;" parent="Hf3mVa162-UcPIvB1rea-3" vertex="1">
          <mxGeometry width="65" height="30" as="geometry">
            <mxRectangle width="65" height="30" as="alternateBounds" />
          </mxGeometry>
        </mxCell>
        <mxCell id="Hf3mVa162-UcPIvB1rea-5" value="Name" style="shape=partialRectangle;html=1;whiteSpace=wrap;connectable=0;strokeColor=inherit;overflow=hidden;fillColor=none;top=0;left=0;bottom=0;right=0;pointerEvents=1;" parent="Hf3mVa162-UcPIvB1rea-3" vertex="1">
          <mxGeometry x="65" width="65" height="30" as="geometry">
            <mxRectangle width="65" height="30" as="alternateBounds" />
          </mxGeometry>
        </mxCell>
        <mxCell id="Hf3mVa162-UcPIvB1rea-6" value="Building" style="text;html=1;align=center;verticalAlign=middle;resizable=0;points=[];autosize=1;strokeColor=none;fillColor=none;" parent="1" vertex="1">
          <mxGeometry x="140" y="50" width="70" height="30" as="geometry" />
        </mxCell>
        <mxCell id="Hf3mVa162-UcPIvB1rea-11" value="" style="shape=table;startSize=0;container=1;collapsible=0;childLayout=tableLayout;" parent="1" vertex="1">
          <mxGeometry x="360" y="72" width="220" height="30" as="geometry" />
        </mxCell>
        <mxCell id="Hf3mVa162-UcPIvB1rea-12" value="" style="shape=tableRow;horizontal=0;startSize=0;swimlaneHead=0;swimlaneBody=0;strokeColor=inherit;top=0;left=0;bottom=0;right=0;collapsible=0;dropTarget=0;fillColor=none;points=[[0,0.5],[1,0.5]];portConstraint=eastwest;" parent="Hf3mVa162-UcPIvB1rea-11" vertex="1">
          <mxGeometry width="220" height="30" as="geometry" />
        </mxCell>
        <mxCell id="Hf3mVa162-UcPIvB1rea-13" value="&lt;u&gt;B#&lt;/u&gt;" style="shape=partialRectangle;html=1;whiteSpace=wrap;connectable=0;strokeColor=inherit;overflow=hidden;fillColor=none;top=0;left=0;bottom=0;right=0;pointerEvents=1;" parent="Hf3mVa162-UcPIvB1rea-12" vertex="1">
          <mxGeometry width="55" height="30" as="geometry">
            <mxRectangle width="55" height="30" as="alternateBounds" />
          </mxGeometry>
        </mxCell>
        <mxCell id="Hf3mVa162-UcPIvB1rea-14" value="&lt;u&gt;R#&lt;/u&gt;" style="shape=partialRectangle;html=1;whiteSpace=wrap;connectable=0;strokeColor=inherit;overflow=hidden;fillColor=none;top=0;left=0;bottom=0;right=0;pointerEvents=1;" parent="Hf3mVa162-UcPIvB1rea-12" vertex="1">
          <mxGeometry x="55" width="55" height="30" as="geometry">
            <mxRectangle width="55" height="30" as="alternateBounds" />
          </mxGeometry>
        </mxCell>
        <mxCell id="Hf3mVa162-UcPIvB1rea-15" value="Size" style="shape=partialRectangle;html=1;whiteSpace=wrap;connectable=0;strokeColor=inherit;overflow=hidden;fillColor=none;top=0;left=0;bottom=0;right=0;pointerEvents=1;" parent="Hf3mVa162-UcPIvB1rea-12" vertex="1">
          <mxGeometry x="110" width="55" height="30" as="geometry">
            <mxRectangle width="55" height="30" as="alternateBounds" />
          </mxGeometry>
        </mxCell>
        <mxCell id="Hf3mVa162-UcPIvB1rea-16" value="D#" style="shape=partialRectangle;html=1;whiteSpace=wrap;connectable=0;strokeColor=inherit;overflow=hidden;fillColor=none;top=0;left=0;bottom=0;right=0;pointerEvents=1;" parent="Hf3mVa162-UcPIvB1rea-12" vertex="1">
          <mxGeometry x="165" width="55" height="30" as="geometry">
            <mxRectangle width="55" height="30" as="alternateBounds" />
          </mxGeometry>
        </mxCell>
        <mxCell id="Hf3mVa162-UcPIvB1rea-17" value="Office" style="text;html=1;align=center;verticalAlign=middle;resizable=0;points=[];autosize=1;strokeColor=none;fillColor=none;" parent="1" vertex="1">
          <mxGeometry x="360" y="50" width="50" height="30" as="geometry" />
        </mxCell>
        <mxCell id="Hf3mVa162-UcPIvB1rea-18" value="" style="shape=table;startSize=0;container=1;collapsible=0;childLayout=tableLayout;" parent="1" vertex="1">
          <mxGeometry x="789" y="62" width="160" height="30" as="geometry" />
        </mxCell>
        <mxCell id="Hf3mVa162-UcPIvB1rea-19" value="" style="shape=tableRow;horizontal=0;startSize=0;swimlaneHead=0;swimlaneBody=0;strokeColor=inherit;top=0;left=0;bottom=0;right=0;collapsible=0;dropTarget=0;fillColor=none;points=[[0,0.5],[1,0.5]];portConstraint=eastwest;" parent="Hf3mVa162-UcPIvB1rea-18" vertex="1">
          <mxGeometry width="160" height="30" as="geometry" />
        </mxCell>
        <mxCell id="Hf3mVa162-UcPIvB1rea-20" value="&lt;u&gt;B#&lt;/u&gt;" style="shape=partialRectangle;html=1;whiteSpace=wrap;connectable=0;strokeColor=inherit;overflow=hidden;fillColor=none;top=0;left=0;bottom=0;right=0;pointerEvents=1;" parent="Hf3mVa162-UcPIvB1rea-19" vertex="1">
          <mxGeometry width="53" height="30" as="geometry">
            <mxRectangle width="53" height="30" as="alternateBounds" />
          </mxGeometry>
        </mxCell>
        <mxCell id="Hf3mVa162-UcPIvB1rea-21" value="&lt;u&gt;R#&lt;/u&gt;" style="shape=partialRectangle;html=1;whiteSpace=wrap;connectable=0;strokeColor=inherit;overflow=hidden;fillColor=none;top=0;left=0;bottom=0;right=0;pointerEvents=1;" parent="Hf3mVa162-UcPIvB1rea-19" vertex="1">
          <mxGeometry x="53" width="54" height="30" as="geometry">
            <mxRectangle width="54" height="30" as="alternateBounds" />
          </mxGeometry>
        </mxCell>
        <mxCell id="Hf3mVa162-UcPIvB1rea-22" value="Seats" style="shape=partialRectangle;html=1;whiteSpace=wrap;connectable=0;strokeColor=inherit;overflow=hidden;fillColor=none;top=0;left=0;bottom=0;right=0;pointerEvents=1;" parent="Hf3mVa162-UcPIvB1rea-19" vertex="1">
          <mxGeometry x="107" width="53" height="30" as="geometry">
            <mxRectangle width="53" height="30" as="alternateBounds" />
          </mxGeometry>
        </mxCell>
        <mxCell id="Hf3mVa162-UcPIvB1rea-23" value="Classroom" style="text;html=1;align=center;verticalAlign=middle;resizable=0;points=[];autosize=1;strokeColor=none;fillColor=none;" parent="1" vertex="1">
          <mxGeometry x="779" y="40" width="80" height="30" as="geometry" />
        </mxCell>
        <mxCell id="Hf3mVa162-UcPIvB1rea-24" value="" style="shape=table;startSize=0;container=1;collapsible=0;childLayout=tableLayout;" parent="1" vertex="1">
          <mxGeometry x="50" y="260" width="300" height="30" as="geometry" />
        </mxCell>
        <mxCell id="Hf3mVa162-UcPIvB1rea-25" value="" style="shape=tableRow;horizontal=0;startSize=0;swimlaneHead=0;swimlaneBody=0;strokeColor=inherit;top=0;left=0;bottom=0;right=0;collapsible=0;dropTarget=0;fillColor=none;points=[[0,0.5],[1,0.5]];portConstraint=eastwest;" parent="Hf3mVa162-UcPIvB1rea-24" vertex="1">
          <mxGeometry width="300" height="30" as="geometry" />
        </mxCell>
        <mxCell id="Hf3mVa162-UcPIvB1rea-26" value="&lt;u&gt;E#&lt;/u&gt;" style="shape=partialRectangle;html=1;whiteSpace=wrap;connectable=0;strokeColor=inherit;overflow=hidden;fillColor=none;top=0;left=0;bottom=0;right=0;pointerEvents=1;" parent="Hf3mVa162-UcPIvB1rea-25" vertex="1">
          <mxGeometry width="60" height="30" as="geometry">
            <mxRectangle width="60" height="30" as="alternateBounds" />
          </mxGeometry>
        </mxCell>
        <mxCell id="Hf3mVa162-UcPIvB1rea-27" value="Name" style="shape=partialRectangle;html=1;whiteSpace=wrap;connectable=0;strokeColor=inherit;overflow=hidden;fillColor=none;top=0;left=0;bottom=0;right=0;pointerEvents=1;" parent="Hf3mVa162-UcPIvB1rea-25" vertex="1">
          <mxGeometry x="60" width="60" height="30" as="geometry">
            <mxRectangle width="60" height="30" as="alternateBounds" />
          </mxGeometry>
        </mxCell>
        <mxCell id="Hf3mVa162-UcPIvB1rea-28" value="D#" style="shape=partialRectangle;html=1;whiteSpace=wrap;connectable=0;strokeColor=inherit;overflow=hidden;fillColor=none;top=0;left=0;bottom=0;right=0;pointerEvents=1;" parent="Hf3mVa162-UcPIvB1rea-25" vertex="1">
          <mxGeometry x="120" width="60" height="30" as="geometry">
            <mxRectangle width="60" height="30" as="alternateBounds" />
          </mxGeometry>
        </mxCell>
        <mxCell id="Hf3mVa162-UcPIvB1rea-29" value="R#" style="shape=partialRectangle;html=1;whiteSpace=wrap;connectable=0;strokeColor=inherit;overflow=hidden;fillColor=none;top=0;left=0;bottom=0;right=0;pointerEvents=1;" parent="Hf3mVa162-UcPIvB1rea-25" vertex="1">
          <mxGeometry x="180" width="60" height="30" as="geometry">
            <mxRectangle width="60" height="30" as="alternateBounds" />
          </mxGeometry>
        </mxCell>
        <mxCell id="Hf3mVa162-UcPIvB1rea-30" value="B#" style="shape=partialRectangle;html=1;whiteSpace=wrap;connectable=0;strokeColor=inherit;overflow=hidden;fillColor=none;top=0;left=0;bottom=0;right=0;pointerEvents=1;" parent="Hf3mVa162-UcPIvB1rea-25" vertex="1">
          <mxGeometry x="240" width="60" height="30" as="geometry">
            <mxRectangle width="60" height="30" as="alternateBounds" />
          </mxGeometry>
        </mxCell>
        <mxCell id="Hf3mVa162-UcPIvB1rea-31" value="Chair" style="text;html=1;align=center;verticalAlign=middle;resizable=0;points=[];autosize=1;strokeColor=none;fillColor=none;" parent="1" vertex="1">
          <mxGeometry x="40" y="230" width="50" height="30" as="geometry" />
        </mxCell>
        <mxCell id="Hf3mVa162-UcPIvB1rea-32" value="" style="shape=table;startSize=0;container=1;collapsible=0;childLayout=tableLayout;" parent="1" vertex="1">
          <mxGeometry x="-130" y="260" width="150" height="30" as="geometry" />
        </mxCell>
        <mxCell id="Hf3mVa162-UcPIvB1rea-33" value="" style="shape=tableRow;horizontal=0;startSize=0;swimlaneHead=0;swimlaneBody=0;strokeColor=inherit;top=0;left=0;bottom=0;right=0;collapsible=0;dropTarget=0;fillColor=none;points=[[0,0.5],[1,0.5]];portConstraint=eastwest;" parent="Hf3mVa162-UcPIvB1rea-32" vertex="1">
          <mxGeometry width="150" height="30" as="geometry" />
        </mxCell>
        <mxCell id="Hf3mVa162-UcPIvB1rea-34" value="&lt;u&gt;E#&lt;/u&gt;" style="shape=partialRectangle;html=1;whiteSpace=wrap;connectable=0;strokeColor=inherit;overflow=hidden;fillColor=none;top=0;left=0;bottom=0;right=0;pointerEvents=1;" parent="Hf3mVa162-UcPIvB1rea-33" vertex="1">
          <mxGeometry width="75" height="30" as="geometry">
            <mxRectangle width="75" height="30" as="alternateBounds" />
          </mxGeometry>
        </mxCell>
        <mxCell id="Hf3mVa162-UcPIvB1rea-35" value="&lt;u&gt;PhoneNum&lt;/u&gt;" style="shape=partialRectangle;html=1;whiteSpace=wrap;connectable=0;strokeColor=inherit;overflow=hidden;fillColor=none;top=0;left=0;bottom=0;right=0;pointerEvents=1;" parent="Hf3mVa162-UcPIvB1rea-33" vertex="1">
          <mxGeometry x="75" width="75" height="30" as="geometry">
            <mxRectangle width="75" height="30" as="alternateBounds" />
          </mxGeometry>
        </mxCell>
        <mxCell id="Hf3mVa162-UcPIvB1rea-36" value="ChairPhone" style="text;html=1;align=center;verticalAlign=middle;resizable=0;points=[];autosize=1;strokeColor=none;fillColor=none;" parent="1" vertex="1">
          <mxGeometry x="-130" y="230" width="90" height="30" as="geometry" />
        </mxCell>
        <mxCell id="Hf3mVa162-UcPIvB1rea-37" value="" style="shape=table;startSize=0;container=1;collapsible=0;childLayout=tableLayout;" parent="1" vertex="1">
          <mxGeometry x="670" y="250" width="120" height="30" as="geometry" />
        </mxCell>
        <mxCell id="Hf3mVa162-UcPIvB1rea-38" value="" style="shape=tableRow;horizontal=0;startSize=0;swimlaneHead=0;swimlaneBody=0;strokeColor=inherit;top=0;left=0;bottom=0;right=0;collapsible=0;dropTarget=0;fillColor=none;points=[[0,0.5],[1,0.5]];portConstraint=eastwest;" parent="Hf3mVa162-UcPIvB1rea-37" vertex="1">
          <mxGeometry width="120" height="30" as="geometry" />
        </mxCell>
        <mxCell id="Hf3mVa162-UcPIvB1rea-39" value="&lt;u&gt;D#&lt;/u&gt;" style="shape=partialRectangle;html=1;whiteSpace=wrap;connectable=0;strokeColor=inherit;overflow=hidden;fillColor=none;top=0;left=0;bottom=0;right=0;pointerEvents=1;" parent="Hf3mVa162-UcPIvB1rea-38" vertex="1">
          <mxGeometry width="60" height="30" as="geometry">
            <mxRectangle width="60" height="30" as="alternateBounds" />
          </mxGeometry>
        </mxCell>
        <mxCell id="Hf3mVa162-UcPIvB1rea-40" value="Name" style="shape=partialRectangle;html=1;whiteSpace=wrap;connectable=0;strokeColor=inherit;overflow=hidden;fillColor=none;top=0;left=0;bottom=0;right=0;pointerEvents=1;" parent="Hf3mVa162-UcPIvB1rea-38" vertex="1">
          <mxGeometry x="60" width="60" height="30" as="geometry">
            <mxRectangle width="60" height="30" as="alternateBounds" />
          </mxGeometry>
        </mxCell>
        <mxCell id="Hf3mVa162-UcPIvB1rea-41" value="Department" style="text;html=1;align=center;verticalAlign=middle;resizable=0;points=[];autosize=1;strokeColor=none;fillColor=none;" parent="1" vertex="1">
          <mxGeometry x="660" y="220" width="90" height="30" as="geometry" />
        </mxCell>
        <mxCell id="Hf3mVa162-UcPIvB1rea-42" value="" style="shape=table;startSize=0;container=1;collapsible=0;childLayout=tableLayout;" parent="1" vertex="1">
          <mxGeometry x="909" y="250" width="300" height="30" as="geometry" />
        </mxCell>
        <mxCell id="Hf3mVa162-UcPIvB1rea-43" value="" style="shape=tableRow;horizontal=0;startSize=0;swimlaneHead=0;swimlaneBody=0;strokeColor=inherit;top=0;left=0;bottom=0;right=0;collapsible=0;dropTarget=0;fillColor=none;points=[[0,0.5],[1,0.5]];portConstraint=eastwest;" parent="Hf3mVa162-UcPIvB1rea-42" vertex="1">
          <mxGeometry width="300" height="30" as="geometry" />
        </mxCell>
        <mxCell id="Hf3mVa162-UcPIvB1rea-44" value="&lt;u style=&quot;border-color: var(--border-color);&quot;&gt;D#&lt;/u&gt;" style="shape=partialRectangle;html=1;whiteSpace=wrap;connectable=0;strokeColor=inherit;overflow=hidden;fillColor=none;top=0;left=0;bottom=0;right=0;pointerEvents=1;" parent="Hf3mVa162-UcPIvB1rea-43" vertex="1">
          <mxGeometry width="60" height="30" as="geometry">
            <mxRectangle width="60" height="30" as="alternateBounds" />
          </mxGeometry>
        </mxCell>
        <mxCell id="Hf3mVa162-UcPIvB1rea-45" value="&lt;u&gt;C#&lt;/u&gt;" style="shape=partialRectangle;html=1;whiteSpace=wrap;connectable=0;strokeColor=inherit;overflow=hidden;fillColor=none;top=0;left=0;bottom=0;right=0;pointerEvents=1;" parent="Hf3mVa162-UcPIvB1rea-43" vertex="1">
          <mxGeometry x="60" width="60" height="30" as="geometry">
            <mxRectangle width="60" height="30" as="alternateBounds" />
          </mxGeometry>
        </mxCell>
        <mxCell id="Hf3mVa162-UcPIvB1rea-46" value="Name" style="shape=partialRectangle;html=1;whiteSpace=wrap;connectable=0;strokeColor=inherit;overflow=hidden;fillColor=none;top=0;left=0;bottom=0;right=0;pointerEvents=1;" parent="Hf3mVa162-UcPIvB1rea-43" vertex="1">
          <mxGeometry x="120" width="60" height="30" as="geometry">
            <mxRectangle width="60" height="30" as="alternateBounds" />
          </mxGeometry>
        </mxCell>
        <mxCell id="Hf3mVa162-UcPIvB1rea-47" value="Credit" style="shape=partialRectangle;html=1;whiteSpace=wrap;connectable=0;strokeColor=inherit;overflow=hidden;fillColor=none;top=0;left=0;bottom=0;right=0;pointerEvents=1;" parent="Hf3mVa162-UcPIvB1rea-43" vertex="1">
          <mxGeometry x="180" width="60" height="30" as="geometry">
            <mxRectangle width="60" height="30" as="alternateBounds" />
          </mxGeometry>
        </mxCell>
        <mxCell id="Hf3mVa162-UcPIvB1rea-48" value="" style="shape=partialRectangle;html=1;whiteSpace=wrap;connectable=0;strokeColor=inherit;overflow=hidden;fillColor=none;top=0;left=0;bottom=0;right=0;pointerEvents=1;" parent="Hf3mVa162-UcPIvB1rea-43" vertex="1">
          <mxGeometry x="240" width="60" height="30" as="geometry">
            <mxRectangle width="60" height="30" as="alternateBounds" />
          </mxGeometry>
        </mxCell>
        <mxCell id="Hf3mVa162-UcPIvB1rea-49" value="Course" style="text;html=1;align=center;verticalAlign=middle;resizable=0;points=[];autosize=1;strokeColor=none;fillColor=none;" parent="1" vertex="1">
          <mxGeometry x="899" y="220" width="60" height="30" as="geometry" />
        </mxCell>
        <mxCell id="Hf3mVa162-UcPIvB1rea-50" value="" style="shape=table;startSize=0;container=1;collapsible=0;childLayout=tableLayout;" parent="1" vertex="1">
          <mxGeometry x="1279" y="250" width="240" height="30" as="geometry" />
        </mxCell>
        <mxCell id="Hf3mVa162-UcPIvB1rea-51" value="" style="shape=tableRow;horizontal=0;startSize=0;swimlaneHead=0;swimlaneBody=0;strokeColor=inherit;top=0;left=0;bottom=0;right=0;collapsible=0;dropTarget=0;fillColor=none;points=[[0,0.5],[1,0.5]];portConstraint=eastwest;" parent="Hf3mVa162-UcPIvB1rea-50" vertex="1">
          <mxGeometry width="240" height="30" as="geometry" />
        </mxCell>
        <mxCell id="Hf3mVa162-UcPIvB1rea-52" value="&lt;u&gt;C#&lt;/u&gt;" style="shape=partialRectangle;html=1;whiteSpace=wrap;connectable=0;strokeColor=inherit;overflow=hidden;fillColor=none;top=0;left=0;bottom=0;right=0;pointerEvents=1;" parent="Hf3mVa162-UcPIvB1rea-51" vertex="1">
          <mxGeometry width="60" height="30" as="geometry">
            <mxRectangle width="60" height="30" as="alternateBounds" />
          </mxGeometry>
        </mxCell>
        <mxCell id="Hf3mVa162-UcPIvB1rea-53" value="&lt;u&gt;D#&lt;/u&gt;" style="shape=partialRectangle;html=1;whiteSpace=wrap;connectable=0;strokeColor=inherit;overflow=hidden;fillColor=none;top=0;left=0;bottom=0;right=0;pointerEvents=1;" parent="Hf3mVa162-UcPIvB1rea-51" vertex="1">
          <mxGeometry x="60" width="60" height="30" as="geometry">
            <mxRectangle width="60" height="30" as="alternateBounds" />
          </mxGeometry>
        </mxCell>
        <mxCell id="Hf3mVa162-UcPIvB1rea-54" value="&lt;u&gt;PD#&lt;/u&gt;" style="shape=partialRectangle;html=1;whiteSpace=wrap;connectable=0;strokeColor=inherit;overflow=hidden;fillColor=none;top=0;left=0;bottom=0;right=0;pointerEvents=1;" parent="Hf3mVa162-UcPIvB1rea-51" vertex="1">
          <mxGeometry x="120" width="60" height="30" as="geometry">
            <mxRectangle width="60" height="30" as="alternateBounds" />
          </mxGeometry>
        </mxCell>
        <mxCell id="Hf3mVa162-UcPIvB1rea-55" value="&lt;u&gt;PC#&lt;/u&gt;" style="shape=partialRectangle;html=1;whiteSpace=wrap;connectable=0;strokeColor=inherit;overflow=hidden;fillColor=none;top=0;left=0;bottom=0;right=0;pointerEvents=1;" parent="Hf3mVa162-UcPIvB1rea-51" vertex="1">
          <mxGeometry x="180" width="60" height="30" as="geometry">
            <mxRectangle width="60" height="30" as="alternateBounds" />
          </mxGeometry>
        </mxCell>
        <mxCell id="Hf3mVa162-UcPIvB1rea-56" value="PrerequisitCourse" style="text;html=1;align=center;verticalAlign=middle;resizable=0;points=[];autosize=1;strokeColor=none;fillColor=none;" parent="1" vertex="1">
          <mxGeometry x="1269" y="220" width="120" height="30" as="geometry" />
        </mxCell>
        <mxCell id="Hf3mVa162-UcPIvB1rea-57" value="" style="shape=table;startSize=0;container=1;collapsible=0;childLayout=tableLayout;" parent="1" vertex="1">
          <mxGeometry x="60" y="500" width="300" height="30" as="geometry" />
        </mxCell>
        <mxCell id="Hf3mVa162-UcPIvB1rea-58" value="" style="shape=tableRow;horizontal=0;startSize=0;swimlaneHead=0;swimlaneBody=0;strokeColor=inherit;top=0;left=0;bottom=0;right=0;collapsible=0;dropTarget=0;fillColor=none;points=[[0,0.5],[1,0.5]];portConstraint=eastwest;" parent="Hf3mVa162-UcPIvB1rea-57" vertex="1">
          <mxGeometry width="300" height="30" as="geometry" />
        </mxCell>
        <mxCell id="Hf3mVa162-UcPIvB1rea-59" value="&lt;u&gt;E#&lt;/u&gt;" style="shape=partialRectangle;html=1;whiteSpace=wrap;connectable=0;strokeColor=inherit;overflow=hidden;fillColor=none;top=0;left=0;bottom=0;right=0;pointerEvents=1;" parent="Hf3mVa162-UcPIvB1rea-58" vertex="1">
          <mxGeometry width="60" height="30" as="geometry">
            <mxRectangle width="60" height="30" as="alternateBounds" />
          </mxGeometry>
        </mxCell>
        <mxCell id="Hf3mVa162-UcPIvB1rea-60" value="Name" style="shape=partialRectangle;html=1;whiteSpace=wrap;connectable=0;strokeColor=inherit;overflow=hidden;fillColor=none;top=0;left=0;bottom=0;right=0;pointerEvents=1;" parent="Hf3mVa162-UcPIvB1rea-58" vertex="1">
          <mxGeometry x="60" width="60" height="30" as="geometry">
            <mxRectangle width="60" height="30" as="alternateBounds" />
          </mxGeometry>
        </mxCell>
        <mxCell id="Hf3mVa162-UcPIvB1rea-61" value="R#" style="shape=partialRectangle;html=1;whiteSpace=wrap;connectable=0;strokeColor=inherit;overflow=hidden;fillColor=none;top=0;left=0;bottom=0;right=0;pointerEvents=1;" parent="Hf3mVa162-UcPIvB1rea-58" vertex="1">
          <mxGeometry x="120" width="60" height="30" as="geometry">
            <mxRectangle width="60" height="30" as="alternateBounds" />
          </mxGeometry>
        </mxCell>
        <mxCell id="Hf3mVa162-UcPIvB1rea-62" value="D#" style="shape=partialRectangle;html=1;whiteSpace=wrap;connectable=0;strokeColor=inherit;overflow=hidden;fillColor=none;top=0;left=0;bottom=0;right=0;pointerEvents=1;" parent="Hf3mVa162-UcPIvB1rea-58" vertex="1">
          <mxGeometry x="180" width="60" height="30" as="geometry">
            <mxRectangle width="60" height="30" as="alternateBounds" />
          </mxGeometry>
        </mxCell>
        <mxCell id="Hf3mVa162-UcPIvB1rea-63" value="B#" style="shape=partialRectangle;html=1;whiteSpace=wrap;connectable=0;strokeColor=inherit;overflow=hidden;fillColor=none;top=0;left=0;bottom=0;right=0;pointerEvents=1;" parent="Hf3mVa162-UcPIvB1rea-58" vertex="1">
          <mxGeometry x="240" width="60" height="30" as="geometry">
            <mxRectangle width="60" height="30" as="alternateBounds" />
          </mxGeometry>
        </mxCell>
        <mxCell id="Hf3mVa162-UcPIvB1rea-64" value="Instructor" style="text;html=1;align=center;verticalAlign=middle;resizable=0;points=[];autosize=1;strokeColor=none;fillColor=none;" parent="1" vertex="1">
          <mxGeometry x="55" y="470" width="70" height="30" as="geometry" />
        </mxCell>
        <mxCell id="Hf3mVa162-UcPIvB1rea-65" value="" style="shape=table;startSize=0;container=1;collapsible=0;childLayout=tableLayout;" parent="1" vertex="1">
          <mxGeometry x="-110" y="500" width="150" height="30" as="geometry" />
        </mxCell>
        <mxCell id="Hf3mVa162-UcPIvB1rea-66" value="" style="shape=tableRow;horizontal=0;startSize=0;swimlaneHead=0;swimlaneBody=0;strokeColor=inherit;top=0;left=0;bottom=0;right=0;collapsible=0;dropTarget=0;fillColor=none;points=[[0,0.5],[1,0.5]];portConstraint=eastwest;" parent="Hf3mVa162-UcPIvB1rea-65" vertex="1">
          <mxGeometry width="150" height="30" as="geometry" />
        </mxCell>
        <mxCell id="Hf3mVa162-UcPIvB1rea-67" value="&lt;u&gt;E#&lt;/u&gt;" style="shape=partialRectangle;html=1;whiteSpace=wrap;connectable=0;strokeColor=inherit;overflow=hidden;fillColor=none;top=0;left=0;bottom=0;right=0;pointerEvents=1;" parent="Hf3mVa162-UcPIvB1rea-66" vertex="1">
          <mxGeometry width="75" height="30" as="geometry">
            <mxRectangle width="75" height="30" as="alternateBounds" />
          </mxGeometry>
        </mxCell>
        <mxCell id="Hf3mVa162-UcPIvB1rea-68" value="&lt;u&gt;PhoneNum&lt;/u&gt;" style="shape=partialRectangle;html=1;whiteSpace=wrap;connectable=0;strokeColor=inherit;overflow=hidden;fillColor=none;top=0;left=0;bottom=0;right=0;pointerEvents=1;" parent="Hf3mVa162-UcPIvB1rea-66" vertex="1">
          <mxGeometry x="75" width="75" height="30" as="geometry">
            <mxRectangle width="75" height="30" as="alternateBounds" />
          </mxGeometry>
        </mxCell>
        <mxCell id="Hf3mVa162-UcPIvB1rea-69" value="InstructorPhone" style="text;html=1;align=center;verticalAlign=middle;resizable=0;points=[];autosize=1;strokeColor=none;fillColor=none;" parent="1" vertex="1">
          <mxGeometry x="-109" y="470" width="110" height="30" as="geometry" />
        </mxCell>
        <mxCell id="Hf3mVa162-UcPIvB1rea-70" value="Section" style="text;html=1;align=center;verticalAlign=middle;resizable=0;points=[];autosize=1;strokeColor=none;fillColor=none;" parent="1" vertex="1">
          <mxGeometry x="789" y="460" width="60" height="30" as="geometry" />
        </mxCell>
        <mxCell id="Hf3mVa162-UcPIvB1rea-95" value="" style="shape=table;startSize=0;container=1;collapsible=0;childLayout=tableLayout;" parent="1" vertex="1">
          <mxGeometry x="1449" y="480" width="240" height="40" as="geometry" />
        </mxCell>
        <mxCell id="Hf3mVa162-UcPIvB1rea-96" value="" style="shape=tableRow;horizontal=0;startSize=0;swimlaneHead=0;swimlaneBody=0;strokeColor=inherit;top=0;left=0;bottom=0;right=0;collapsible=0;dropTarget=0;fillColor=none;points=[[0,0.5],[1,0.5]];portConstraint=eastwest;" parent="Hf3mVa162-UcPIvB1rea-95" vertex="1">
          <mxGeometry width="240" height="40" as="geometry" />
        </mxCell>
        <mxCell id="Hf3mVa162-UcPIvB1rea-97" value="&lt;u&gt;TID&lt;/u&gt;" style="shape=partialRectangle;html=1;whiteSpace=wrap;connectable=0;strokeColor=inherit;overflow=hidden;fillColor=none;top=0;left=0;bottom=0;right=0;pointerEvents=1;" parent="Hf3mVa162-UcPIvB1rea-96" vertex="1">
          <mxGeometry width="60" height="40" as="geometry">
            <mxRectangle width="60" height="40" as="alternateBounds" />
          </mxGeometry>
        </mxCell>
        <mxCell id="Hf3mVa162-UcPIvB1rea-98" value="Day" style="shape=partialRectangle;html=1;whiteSpace=wrap;connectable=0;strokeColor=inherit;overflow=hidden;fillColor=none;top=0;left=0;bottom=0;right=0;pointerEvents=1;" parent="Hf3mVa162-UcPIvB1rea-96" vertex="1">
          <mxGeometry x="60" width="60" height="40" as="geometry">
            <mxRectangle width="60" height="40" as="alternateBounds" />
          </mxGeometry>
        </mxCell>
        <mxCell id="Hf3mVa162-UcPIvB1rea-99" value="Start" style="shape=partialRectangle;html=1;whiteSpace=wrap;connectable=0;strokeColor=inherit;overflow=hidden;fillColor=none;top=0;left=0;bottom=0;right=0;pointerEvents=1;" parent="Hf3mVa162-UcPIvB1rea-96" vertex="1">
          <mxGeometry x="120" width="60" height="40" as="geometry">
            <mxRectangle width="60" height="40" as="alternateBounds" />
          </mxGeometry>
        </mxCell>
        <mxCell id="Hf3mVa162-UcPIvB1rea-100" value="End" style="shape=partialRectangle;html=1;whiteSpace=wrap;connectable=0;strokeColor=inherit;overflow=hidden;fillColor=none;top=0;left=0;bottom=0;right=0;pointerEvents=1;" parent="Hf3mVa162-UcPIvB1rea-96" vertex="1">
          <mxGeometry x="180" width="60" height="40" as="geometry">
            <mxRectangle width="60" height="40" as="alternateBounds" />
          </mxGeometry>
        </mxCell>
        <mxCell id="Hf3mVa162-UcPIvB1rea-101" value="Timeslot" style="text;html=1;align=center;verticalAlign=middle;resizable=0;points=[];autosize=1;strokeColor=none;fillColor=none;" parent="1" vertex="1">
          <mxGeometry x="1439" y="450" width="70" height="30" as="geometry" />
        </mxCell>
        <mxCell id="Hf3mVa162-UcPIvB1rea-102" value="" style="shape=table;startSize=0;container=1;collapsible=0;childLayout=tableLayout;" parent="1" vertex="1">
          <mxGeometry x="859" y="760" width="240" height="30" as="geometry" />
        </mxCell>
        <mxCell id="Hf3mVa162-UcPIvB1rea-103" value="" style="shape=tableRow;horizontal=0;startSize=0;swimlaneHead=0;swimlaneBody=0;strokeColor=inherit;top=0;left=0;bottom=0;right=0;collapsible=0;dropTarget=0;fillColor=none;points=[[0,0.5],[1,0.5]];portConstraint=eastwest;" parent="Hf3mVa162-UcPIvB1rea-102" vertex="1">
          <mxGeometry width="240" height="30" as="geometry" />
        </mxCell>
        <mxCell id="Hf3mVa162-UcPIvB1rea-104" value="&lt;u&gt;Sec#&lt;/u&gt;" style="shape=partialRectangle;html=1;whiteSpace=wrap;connectable=0;strokeColor=inherit;overflow=hidden;fillColor=none;top=0;left=0;bottom=0;right=0;pointerEvents=1;" parent="Hf3mVa162-UcPIvB1rea-103" vertex="1">
          <mxGeometry width="60" height="30" as="geometry">
            <mxRectangle width="60" height="30" as="alternateBounds" />
          </mxGeometry>
        </mxCell>
        <mxCell id="Hf3mVa162-UcPIvB1rea-105" value="&lt;u&gt;D#&lt;/u&gt;" style="shape=partialRectangle;html=1;whiteSpace=wrap;connectable=0;strokeColor=inherit;overflow=hidden;fillColor=none;top=0;left=0;bottom=0;right=0;pointerEvents=1;" parent="Hf3mVa162-UcPIvB1rea-103" vertex="1">
          <mxGeometry x="60" width="60" height="30" as="geometry">
            <mxRectangle width="60" height="30" as="alternateBounds" />
          </mxGeometry>
        </mxCell>
        <mxCell id="Hf3mVa162-UcPIvB1rea-106" value="&lt;u&gt;C#&lt;/u&gt;" style="shape=partialRectangle;html=1;whiteSpace=wrap;connectable=0;strokeColor=inherit;overflow=hidden;fillColor=none;top=0;left=0;bottom=0;right=0;pointerEvents=1;" parent="Hf3mVa162-UcPIvB1rea-103" vertex="1">
          <mxGeometry x="120" width="60" height="30" as="geometry">
            <mxRectangle width="60" height="30" as="alternateBounds" />
          </mxGeometry>
        </mxCell>
        <mxCell id="Hf3mVa162-UcPIvB1rea-107" value="&lt;u&gt;S#&lt;/u&gt;" style="shape=partialRectangle;html=1;whiteSpace=wrap;connectable=0;strokeColor=inherit;overflow=hidden;fillColor=none;top=0;left=0;bottom=0;right=0;pointerEvents=1;" parent="Hf3mVa162-UcPIvB1rea-103" vertex="1">
          <mxGeometry x="180" width="60" height="30" as="geometry">
            <mxRectangle width="60" height="30" as="alternateBounds" />
          </mxGeometry>
        </mxCell>
        <mxCell id="Hf3mVa162-UcPIvB1rea-108" value="SS" style="text;html=1;align=center;verticalAlign=middle;resizable=0;points=[];autosize=1;strokeColor=none;fillColor=none;" parent="1" vertex="1">
          <mxGeometry x="849" y="730" width="40" height="30" as="geometry" />
        </mxCell>
        <mxCell id="Hf3mVa162-UcPIvB1rea-109" value="" style="shape=table;startSize=0;container=1;collapsible=0;childLayout=tableLayout;" parent="1" vertex="1">
          <mxGeometry x="490" y="760" width="180" height="30" as="geometry" />
        </mxCell>
        <mxCell id="Hf3mVa162-UcPIvB1rea-110" value="" style="shape=tableRow;horizontal=0;startSize=0;swimlaneHead=0;swimlaneBody=0;strokeColor=inherit;top=0;left=0;bottom=0;right=0;collapsible=0;dropTarget=0;fillColor=none;points=[[0,0.5],[1,0.5]];portConstraint=eastwest;" parent="Hf3mVa162-UcPIvB1rea-109" vertex="1">
          <mxGeometry width="180" height="30" as="geometry" />
        </mxCell>
        <mxCell id="Hf3mVa162-UcPIvB1rea-111" value="&lt;u&gt;S#&lt;/u&gt;" style="shape=partialRectangle;html=1;whiteSpace=wrap;connectable=0;strokeColor=inherit;overflow=hidden;fillColor=none;top=0;left=0;bottom=0;right=0;pointerEvents=1;" parent="Hf3mVa162-UcPIvB1rea-110" vertex="1">
          <mxGeometry width="60" height="30" as="geometry">
            <mxRectangle width="60" height="30" as="alternateBounds" />
          </mxGeometry>
        </mxCell>
        <mxCell id="Hf3mVa162-UcPIvB1rea-112" value="Name" style="shape=partialRectangle;html=1;whiteSpace=wrap;connectable=0;strokeColor=inherit;overflow=hidden;fillColor=none;top=0;left=0;bottom=0;right=0;pointerEvents=1;" parent="Hf3mVa162-UcPIvB1rea-110" vertex="1">
          <mxGeometry x="60" width="60" height="30" as="geometry">
            <mxRectangle width="60" height="30" as="alternateBounds" />
          </mxGeometry>
        </mxCell>
        <mxCell id="Hf3mVa162-UcPIvB1rea-113" value="D#" style="shape=partialRectangle;html=1;whiteSpace=wrap;connectable=0;strokeColor=inherit;overflow=hidden;fillColor=none;top=0;left=0;bottom=0;right=0;pointerEvents=1;" parent="Hf3mVa162-UcPIvB1rea-110" vertex="1">
          <mxGeometry x="120" width="60" height="30" as="geometry">
            <mxRectangle width="60" height="30" as="alternateBounds" />
          </mxGeometry>
        </mxCell>
        <mxCell id="Hf3mVa162-UcPIvB1rea-114" value="Student" style="text;html=1;align=center;verticalAlign=middle;resizable=0;points=[];autosize=1;strokeColor=none;fillColor=none;" parent="1" vertex="1">
          <mxGeometry x="490" y="730" width="60" height="30" as="geometry" />
        </mxCell>
        <mxCell id="Hf3mVa162-UcPIvB1rea-115" value="" style="shape=table;startSize=0;container=1;collapsible=0;childLayout=tableLayout;" parent="1" vertex="1">
          <mxGeometry x="1159" y="760" width="245" height="30" as="geometry" />
        </mxCell>
        <mxCell id="Hf3mVa162-UcPIvB1rea-116" value="" style="shape=tableRow;horizontal=0;startSize=0;swimlaneHead=0;swimlaneBody=0;strokeColor=inherit;top=0;left=0;bottom=0;right=0;collapsible=0;dropTarget=0;fillColor=none;points=[[0,0.5],[1,0.5]];portConstraint=eastwest;" parent="Hf3mVa162-UcPIvB1rea-115" vertex="1">
          <mxGeometry width="245" height="30" as="geometry" />
        </mxCell>
        <mxCell id="Hf3mVa162-UcPIvB1rea-117" value="&lt;u&gt;Name&lt;/u&gt;" style="shape=partialRectangle;html=1;whiteSpace=wrap;connectable=0;strokeColor=inherit;overflow=hidden;fillColor=none;top=0;left=0;bottom=0;right=0;pointerEvents=1;" parent="Hf3mVa162-UcPIvB1rea-116" vertex="1">
          <mxGeometry width="61" height="30" as="geometry">
            <mxRectangle width="61" height="30" as="alternateBounds" />
          </mxGeometry>
        </mxCell>
        <mxCell id="Hf3mVa162-UcPIvB1rea-118" value="&lt;u&gt;Sec#&lt;/u&gt;" style="shape=partialRectangle;html=1;whiteSpace=wrap;connectable=0;strokeColor=inherit;overflow=hidden;fillColor=none;top=0;left=0;bottom=0;right=0;pointerEvents=1;" parent="Hf3mVa162-UcPIvB1rea-116" vertex="1">
          <mxGeometry x="61" width="62" height="30" as="geometry">
            <mxRectangle width="62" height="30" as="alternateBounds" />
          </mxGeometry>
        </mxCell>
        <mxCell id="Hf3mVa162-UcPIvB1rea-119" value="&lt;u&gt;C#&lt;/u&gt;" style="shape=partialRectangle;html=1;whiteSpace=wrap;connectable=0;strokeColor=inherit;overflow=hidden;fillColor=none;top=0;left=0;bottom=0;right=0;pointerEvents=1;" parent="Hf3mVa162-UcPIvB1rea-116" vertex="1">
          <mxGeometry x="123" width="61" height="30" as="geometry">
            <mxRectangle width="61" height="30" as="alternateBounds" />
          </mxGeometry>
        </mxCell>
        <mxCell id="Hf3mVa162-UcPIvB1rea-120" value="&lt;u&gt;D#&lt;/u&gt;" style="shape=partialRectangle;html=1;whiteSpace=wrap;connectable=0;strokeColor=inherit;overflow=hidden;fillColor=none;top=0;left=0;bottom=0;right=0;pointerEvents=1;" parent="Hf3mVa162-UcPIvB1rea-116" vertex="1">
          <mxGeometry x="184" width="61" height="30" as="geometry">
            <mxRectangle width="61" height="30" as="alternateBounds" />
          </mxGeometry>
        </mxCell>
        <mxCell id="Hf3mVa162-UcPIvB1rea-121" value="Textbook" style="text;html=1;align=center;verticalAlign=middle;resizable=0;points=[];autosize=1;strokeColor=none;fillColor=none;" parent="1" vertex="1">
          <mxGeometry x="1159" y="730" width="70" height="30" as="geometry" />
        </mxCell>
        <mxCell id="GKWICFRkTkMmWIrCqBVy-6" value="" style="endArrow=classic;html=1;rounded=0;fontSize=12;startSize=8;endSize=8;edgeStyle=orthogonalEdgeStyle;exitX=0.09;exitY=1.009;exitDx=0;exitDy=0;exitPerimeter=0;entryX=0.231;entryY=1;entryDx=0;entryDy=0;entryPerimeter=0;" edge="1" parent="1" target="Hf3mVa162-UcPIvB1rea-3">
          <mxGeometry width="50" height="50" relative="1" as="geometry">
            <mxPoint x="389.79999999999995" y="102.26999999999998" as="sourcePoint" />
            <mxPoint x="190" y="102" as="targetPoint" />
            <Array as="points">
              <mxPoint x="400" y="102" />
              <mxPoint x="400" y="150" />
              <mxPoint x="180" y="150" />
            </Array>
          </mxGeometry>
        </mxCell>
        <mxCell id="GKWICFRkTkMmWIrCqBVy-7" value="" style="endArrow=classic;html=1;rounded=0;fontSize=12;startSize=8;endSize=8;edgeStyle=orthogonalEdgeStyle;exitX=0.064;exitY=0.992;exitDx=0;exitDy=0;exitPerimeter=0;endFill=1;entryX=0.38;entryY=1.014;entryDx=0;entryDy=0;entryPerimeter=0;" edge="1" parent="1" source="Hf3mVa162-UcPIvB1rea-18" target="Hf3mVa162-UcPIvB1rea-3">
          <mxGeometry width="50" height="50" relative="1" as="geometry">
            <mxPoint x="749.8" y="102.26999999999998" as="sourcePoint" />
            <mxPoint x="190" y="102" as="targetPoint" />
            <Array as="points">
              <mxPoint x="799" y="102" />
              <mxPoint x="800" y="102" />
              <mxPoint x="800" y="140" />
              <mxPoint x="199" y="140" />
            </Array>
          </mxGeometry>
        </mxCell>
        <mxCell id="GKWICFRkTkMmWIrCqBVy-10" value="" style="endArrow=classic;html=1;rounded=0;fontSize=12;startSize=8;endSize=8;edgeStyle=orthogonalEdgeStyle;exitX=0.09;exitY=1.009;exitDx=0;exitDy=0;exitPerimeter=0;endFill=1;startArrow=none;startFill=0;strokeColor=none;" edge="1" parent="1">
          <mxGeometry width="50" height="50" relative="1" as="geometry">
            <mxPoint x="640" y="280.27" as="sourcePoint" />
            <mxPoint x="80.2" y="280" as="targetPoint" />
            <Array as="points">
              <mxPoint x="640.2" y="328" />
              <mxPoint x="80.2" y="328" />
              <mxPoint x="80.2" y="280" />
            </Array>
          </mxGeometry>
        </mxCell>
        <mxCell id="GKWICFRkTkMmWIrCqBVy-11" value="" style="endArrow=classic;html=1;rounded=0;fontSize=12;startSize=8;endSize=8;edgeStyle=orthogonalEdgeStyle;exitX=0.259;exitY=1.105;exitDx=0;exitDy=0;exitPerimeter=0;" edge="1" parent="1" source="Hf3mVa162-UcPIvB1rea-33">
          <mxGeometry width="50" height="50" relative="1" as="geometry">
            <mxPoint x="450" y="290" as="sourcePoint" />
            <mxPoint x="80" y="290" as="targetPoint" />
            <Array as="points">
              <mxPoint x="-91" y="290" />
              <mxPoint x="-90" y="338" />
              <mxPoint x="81" y="338" />
              <mxPoint x="81" y="290" />
            </Array>
          </mxGeometry>
        </mxCell>
        <mxCell id="GKWICFRkTkMmWIrCqBVy-12" value="" style="endArrow=classic;html=1;rounded=0;fontSize=12;startSize=8;endSize=8;exitX=0.272;exitY=1.072;exitDx=0;exitDy=0;exitPerimeter=0;edgeStyle=orthogonalEdgeStyle;" edge="1" parent="1">
          <mxGeometry width="50" height="50" relative="1" as="geometry">
            <mxPoint x="196.3200000000001" y="290.00000000000006" as="sourcePoint" />
            <mxPoint x="680" y="280" as="targetPoint" />
            <Array as="points">
              <mxPoint x="196" y="360" />
              <mxPoint x="680" y="360" />
              <mxPoint x="680" y="281" />
            </Array>
          </mxGeometry>
        </mxCell>
        <mxCell id="GKWICFRkTkMmWIrCqBVy-13" value="" style="endArrow=classic;html=1;rounded=0;fontSize=12;startSize=8;endSize=8;exitX=0.272;exitY=1.072;exitDx=0;exitDy=0;exitPerimeter=0;edgeStyle=orthogonalEdgeStyle;entryX=0.043;entryY=1.015;entryDx=0;entryDy=0;entryPerimeter=0;" edge="1" parent="1" target="Hf3mVa162-UcPIvB1rea-12">
          <mxGeometry width="50" height="50" relative="1" as="geometry">
            <mxPoint x="318.1700000000001" y="290.00000000000006" as="sourcePoint" />
            <mxPoint x="370" y="220" as="targetPoint" />
            <Array as="points">
              <mxPoint x="318" y="310" />
              <mxPoint x="370" y="310" />
              <mxPoint x="370" y="102" />
            </Array>
          </mxGeometry>
        </mxCell>
        <mxCell id="GKWICFRkTkMmWIrCqBVy-14" value="" style="endArrow=classic;html=1;rounded=0;fontSize=12;startSize=8;endSize=8;exitX=0.272;exitY=1.072;exitDx=0;exitDy=0;exitPerimeter=0;edgeStyle=orthogonalEdgeStyle;entryX=0.365;entryY=1.031;entryDx=0;entryDy=0;entryPerimeter=0;" edge="1" parent="1" target="Hf3mVa162-UcPIvB1rea-12">
          <mxGeometry width="50" height="50" relative="1" as="geometry">
            <mxPoint x="261.1700000000001" y="290.00000000000006" as="sourcePoint" />
            <mxPoint x="440" y="110" as="targetPoint" />
            <Array as="points">
              <mxPoint x="261" y="320" />
              <mxPoint x="440" y="320" />
            </Array>
          </mxGeometry>
        </mxCell>
        <mxCell id="GKWICFRkTkMmWIrCqBVy-15" value="" style="endArrow=classic;html=1;rounded=0;fontSize=12;startSize=8;endSize=8;edgeStyle=orthogonalEdgeStyle;exitX=0.863;exitY=1.018;exitDx=0;exitDy=0;exitPerimeter=0;" edge="1" parent="1">
          <mxGeometry width="50" height="50" relative="1" as="geometry">
            <mxPoint x="539.8300000000002" y="101.99999999999996" as="sourcePoint" />
            <mxPoint x="669.97" y="279.46" as="targetPoint" />
            <Array as="points">
              <mxPoint x="539.97" y="309.46" />
              <mxPoint x="669.97" y="309.46" />
            </Array>
          </mxGeometry>
        </mxCell>
        <mxCell id="GKWICFRkTkMmWIrCqBVy-16" value="" style="endArrow=classic;html=1;rounded=0;fontSize=12;startSize=8;endSize=8;edgeStyle=orthogonalEdgeStyle;exitX=0.034;exitY=1.013;exitDx=0;exitDy=0;exitPerimeter=0;" edge="1" parent="1" source="Hf3mVa162-UcPIvB1rea-43">
          <mxGeometry width="50" height="50" relative="1" as="geometry">
            <mxPoint x="938" y="281" as="sourcePoint" />
            <mxPoint x="720" y="280" as="targetPoint" />
            <Array as="points">
              <mxPoint x="919" y="350" />
              <mxPoint x="720" y="350" />
              <mxPoint x="720" y="280" />
            </Array>
          </mxGeometry>
        </mxCell>
        <mxCell id="GKWICFRkTkMmWIrCqBVy-17" value="" style="endArrow=classic;html=1;rounded=0;fontSize=12;startSize=8;endSize=8;edgeStyle=orthogonalEdgeStyle;" edge="1" parent="1">
          <mxGeometry width="50" height="50" relative="1" as="geometry">
            <mxPoint x="1369" y="280" as="sourcePoint" />
            <mxPoint x="929" y="280" as="targetPoint" />
            <Array as="points">
              <mxPoint x="1369" y="350" />
              <mxPoint x="929" y="350" />
              <mxPoint x="929" y="280" />
            </Array>
          </mxGeometry>
        </mxCell>
        <mxCell id="GKWICFRkTkMmWIrCqBVy-18" value="" style="endArrow=classic;html=1;rounded=0;fontSize=12;startSize=8;endSize=8;edgeStyle=orthogonalEdgeStyle;entryX=0.239;entryY=0.986;entryDx=0;entryDy=0;entryPerimeter=0;" edge="1" parent="1">
          <mxGeometry width="50" height="50" relative="1" as="geometry">
            <mxPoint x="1329" y="280" as="sourcePoint" />
            <mxPoint x="999" y="280" as="targetPoint" />
            <Array as="points">
              <mxPoint x="1309" y="280" />
              <mxPoint x="1309" y="340" />
              <mxPoint x="999" y="340" />
            </Array>
          </mxGeometry>
        </mxCell>
        <mxCell id="GKWICFRkTkMmWIrCqBVy-19" value="" style="endArrow=classic;html=1;rounded=0;fontSize=12;startSize=8;endSize=8;edgeStyle=orthogonalEdgeStyle;entryX=0.1;entryY=1;entryDx=0;entryDy=0;entryPerimeter=0;exitX=0.621;exitY=1;exitDx=0;exitDy=0;exitPerimeter=0;" edge="1" parent="1" source="Hf3mVa162-UcPIvB1rea-51" target="Hf3mVa162-UcPIvB1rea-43">
          <mxGeometry width="50" height="50" relative="1" as="geometry">
            <mxPoint x="1379" y="290" as="sourcePoint" />
            <mxPoint x="949" y="290" as="targetPoint" />
            <Array as="points">
              <mxPoint x="1429" y="280" />
              <mxPoint x="1429" y="360" />
              <mxPoint x="939" y="360" />
            </Array>
          </mxGeometry>
        </mxCell>
        <mxCell id="GKWICFRkTkMmWIrCqBVy-20" value="" style="endArrow=classic;html=1;rounded=0;fontSize=12;startSize=8;endSize=8;edgeStyle=orthogonalEdgeStyle;entryX=0.239;entryY=0.986;entryDx=0;entryDy=0;entryPerimeter=0;exitX=0.827;exitY=1.017;exitDx=0;exitDy=0;exitPerimeter=0;" edge="1" parent="1" source="Hf3mVa162-UcPIvB1rea-50">
          <mxGeometry width="50" height="50" relative="1" as="geometry">
            <mxPoint x="1344" y="280" as="sourcePoint" />
            <mxPoint x="1014" y="280" as="targetPoint" />
            <Array as="points">
              <mxPoint x="1479" y="281" />
              <mxPoint x="1479" y="330" />
              <mxPoint x="1014" y="330" />
            </Array>
          </mxGeometry>
        </mxCell>
        <mxCell id="GKWICFRkTkMmWIrCqBVy-21" value="" style="endArrow=classic;html=1;rounded=0;fontSize=12;startSize=8;endSize=8;edgeStyle=orthogonalEdgeStyle;entryX=0.27;entryY=0.998;entryDx=0;entryDy=0;entryPerimeter=0;" edge="1" parent="1" target="Hf3mVa162-UcPIvB1rea-12">
          <mxGeometry width="50" height="50" relative="1" as="geometry">
            <mxPoint x="210" y="530" as="sourcePoint" />
            <mxPoint x="420" y="110" as="targetPoint" />
            <Array as="points">
              <mxPoint x="210" y="580" />
              <mxPoint x="420" y="580" />
            </Array>
          </mxGeometry>
        </mxCell>
        <mxCell id="GKWICFRkTkMmWIrCqBVy-22" value="" style="endArrow=classic;html=1;rounded=0;fontSize=12;startSize=8;endSize=8;exitX=0.898;exitY=0.967;exitDx=0;exitDy=0;exitPerimeter=0;edgeStyle=orthogonalEdgeStyle;entryX=0.127;entryY=1.036;entryDx=0;entryDy=0;entryPerimeter=0;" edge="1" parent="1" source="Hf3mVa162-UcPIvB1rea-58" target="Hf3mVa162-UcPIvB1rea-12">
          <mxGeometry width="50" height="50" relative="1" as="geometry">
            <mxPoint x="220.02000000000007" y="538" as="sourcePoint" />
            <mxPoint x="458" y="110" as="targetPoint" />
            <Array as="points">
              <mxPoint x="329" y="538" />
              <mxPoint x="330" y="538" />
              <mxPoint x="330" y="540" />
              <mxPoint x="388" y="540" />
            </Array>
          </mxGeometry>
        </mxCell>
        <mxCell id="GKWICFRkTkMmWIrCqBVy-24" value="" style="endArrow=classic;html=1;rounded=0;fontSize=12;startSize=8;endSize=8;exitX=0.272;exitY=1.072;exitDx=0;exitDy=0;exitPerimeter=0;edgeStyle=orthogonalEdgeStyle;" edge="1" parent="1">
          <mxGeometry width="50" height="50" relative="1" as="geometry">
            <mxPoint x="270.0000000000001" y="530" as="sourcePoint" />
            <mxPoint x="690" y="280" as="targetPoint" />
            <Array as="points">
              <mxPoint x="270" y="600" />
              <mxPoint x="690" y="600" />
              <mxPoint x="690" y="280" />
            </Array>
          </mxGeometry>
        </mxCell>
        <mxCell id="GKWICFRkTkMmWIrCqBVy-25" value="" style="endArrow=classic;html=1;rounded=0;fontSize=12;startSize=8;endSize=8;edgeStyle=orthogonalEdgeStyle;" edge="1" parent="1">
          <mxGeometry width="50" height="50" relative="1" as="geometry">
            <mxPoint x="-70" y="530" as="sourcePoint" />
            <mxPoint x="81" y="530" as="targetPoint" />
            <Array as="points">
              <mxPoint x="-70" y="530" />
              <mxPoint x="-70" y="578" />
              <mxPoint x="81" y="578" />
              <mxPoint x="81" y="530" />
            </Array>
          </mxGeometry>
        </mxCell>
        <mxCell id="GKWICFRkTkMmWIrCqBVy-26" value="" style="endArrow=classic;html=1;rounded=0;fontSize=12;startSize=8;endSize=8;edgeStyle=orthogonalEdgeStyle;exitX=0.257;exitY=0.988;exitDx=0;exitDy=0;exitPerimeter=0;" edge="1" parent="1">
          <mxGeometry width="50" height="50" relative="1" as="geometry">
            <mxPoint x="939.3450000000003" y="519.64" as="sourcePoint" />
            <mxPoint x="710" y="280" as="targetPoint" />
            <Array as="points">
              <mxPoint x="939" y="650" />
              <mxPoint x="710" y="650" />
            </Array>
          </mxGeometry>
        </mxCell>
        <mxCell id="GKWICFRkTkMmWIrCqBVy-27" value="" style="endArrow=classic;html=1;rounded=0;fontSize=12;startSize=8;endSize=8;edgeStyle=orthogonalEdgeStyle;exitX=0.125;exitY=1.024;exitDx=0;exitDy=0;exitPerimeter=0;entryX=0.269;entryY=1.033;entryDx=0;entryDy=0;entryPerimeter=0;" edge="1" parent="1">
          <mxGeometry width="50" height="50" relative="1" as="geometry">
            <mxPoint x="862.125" y="520.72" as="sourcePoint" />
            <mxPoint x="982.34" y="280" as="targetPoint" />
            <Array as="points">
              <mxPoint x="862" y="518" />
              <mxPoint x="862" y="619" />
              <mxPoint x="780" y="619" />
              <mxPoint x="780" y="439" />
              <mxPoint x="982" y="439" />
            </Array>
          </mxGeometry>
        </mxCell>
        <mxCell id="GKWICFRkTkMmWIrCqBVy-28" value="" style="endArrow=none;html=1;rounded=0;fontSize=12;startSize=8;endSize=8;edgeStyle=orthogonalEdgeStyle;entryX=0.611;entryY=0.96;entryDx=0;entryDy=0;entryPerimeter=0;exitX=0.224;exitY=1.02;exitDx=0;exitDy=0;exitPerimeter=0;startArrow=classic;startFill=1;endFill=0;" edge="1" parent="1" source="Hf3mVa162-UcPIvB1rea-19" target="GKWICFRkTkMmWIrCqBVy-44">
          <mxGeometry width="50" height="50" relative="1" as="geometry">
            <mxPoint x="1219" y="140" as="sourcePoint" />
            <mxPoint x="1186.2150000000001" y="520.1200000000001" as="targetPoint" />
            <Array as="points">
              <mxPoint x="825" y="130" />
              <mxPoint x="1229" y="130" />
              <mxPoint x="1229" y="380" />
              <mxPoint x="1410" y="380" />
              <mxPoint x="1410" y="570" />
              <mxPoint x="1120" y="570" />
            </Array>
          </mxGeometry>
        </mxCell>
        <mxCell id="GKWICFRkTkMmWIrCqBVy-29" value="" style="endArrow=none;html=1;rounded=0;fontSize=12;startSize=8;endSize=8;edgeStyle=orthogonalEdgeStyle;entryX=0.721;entryY=0.987;entryDx=0;entryDy=0;entryPerimeter=0;startArrow=classic;startFill=1;endFill=0;" edge="1" parent="1" target="GKWICFRkTkMmWIrCqBVy-44">
          <mxGeometry width="50" height="50" relative="1" as="geometry">
            <mxPoint x="869" y="92" as="sourcePoint" />
            <mxPoint x="1240" y="519" as="targetPoint" />
            <Array as="points">
              <mxPoint x="869" y="120" />
              <mxPoint x="1239" y="120" />
              <mxPoint x="1239" y="390" />
              <mxPoint x="1399" y="390" />
              <mxPoint x="1399" y="560" />
              <mxPoint x="1180" y="560" />
              <mxPoint x="1180" y="520" />
            </Array>
          </mxGeometry>
        </mxCell>
        <mxCell id="GKWICFRkTkMmWIrCqBVy-30" value="" style="endArrow=none;html=1;rounded=0;fontSize=12;startSize=8;endSize=8;exitX=0.131;exitY=1.038;exitDx=0;exitDy=0;exitPerimeter=0;edgeStyle=orthogonalEdgeStyle;endFill=0;startArrow=classic;startFill=1;entryX=0.831;entryY=1.04;entryDx=0;entryDy=0;entryPerimeter=0;" edge="1" parent="1" source="Hf3mVa162-UcPIvB1rea-58" target="GKWICFRkTkMmWIrCqBVy-44">
          <mxGeometry width="50" height="50" relative="1" as="geometry">
            <mxPoint x="140.0900000000001" y="630" as="sourcePoint" />
            <mxPoint x="1297.3650000000002" y="520.6299999999999" as="targetPoint" />
            <Array as="points">
              <mxPoint x="99" y="700" />
              <mxPoint x="1240" y="700" />
              <mxPoint x="1240" y="521" />
            </Array>
          </mxGeometry>
        </mxCell>
        <mxCell id="GKWICFRkTkMmWIrCqBVy-31" value="" style="endArrow=classic;html=1;rounded=0;fontSize=12;startSize=8;endSize=8;exitX=0.272;exitY=1.072;exitDx=0;exitDy=0;exitPerimeter=0;edgeStyle=orthogonalEdgeStyle;" edge="1" parent="1">
          <mxGeometry width="50" height="50" relative="1" as="geometry">
            <mxPoint x="640.0000000000001" y="790" as="sourcePoint" />
            <mxPoint x="700" y="280" as="targetPoint" />
            <Array as="points">
              <mxPoint x="640" y="800" />
              <mxPoint x="700" y="800" />
              <mxPoint x="700" y="280" />
            </Array>
          </mxGeometry>
        </mxCell>
        <mxCell id="GKWICFRkTkMmWIrCqBVy-32" value="" style="endArrow=classic;html=1;rounded=0;fontSize=12;startSize=8;endSize=8;edgeStyle=orthogonalEdgeStyle;exitX=0.879;exitY=1.028;exitDx=0;exitDy=0;exitPerimeter=0;" edge="1" parent="1" source="Hf3mVa162-UcPIvB1rea-103">
          <mxGeometry width="50" height="50" relative="1" as="geometry">
            <mxPoint x="1000" y="800" as="sourcePoint" />
            <mxPoint x="518" y="791" as="targetPoint" />
            <Array as="points">
              <mxPoint x="1070" y="840" />
              <mxPoint x="518" y="840" />
            </Array>
          </mxGeometry>
        </mxCell>
        <mxCell id="GKWICFRkTkMmWIrCqBVy-33" value="" style="endArrow=classic;html=1;rounded=0;fontSize=12;startSize=8;endSize=8;entryX=0.221;entryY=1.01;entryDx=0;entryDy=0;entryPerimeter=0;edgeStyle=orthogonalEdgeStyle;exitX=0.367;exitY=0.962;exitDx=0;exitDy=0;exitPerimeter=0;" edge="1" parent="1" source="Hf3mVa162-UcPIvB1rea-103">
          <mxGeometry width="50" height="50" relative="1" as="geometry">
            <mxPoint x="829" y="810" as="sourcePoint" />
            <mxPoint x="918.2849999999999" y="520.3" as="targetPoint" />
            <Array as="points">
              <mxPoint x="947" y="810" />
              <mxPoint x="819" y="810" />
              <mxPoint x="819" y="640" />
              <mxPoint x="918" y="640" />
            </Array>
          </mxGeometry>
        </mxCell>
        <mxCell id="GKWICFRkTkMmWIrCqBVy-34" value="" style="endArrow=classic;html=1;rounded=0;fontSize=12;startSize=8;endSize=8;edgeStyle=orthogonalEdgeStyle;exitX=0.367;exitY=0.962;exitDx=0;exitDy=0;exitPerimeter=0;" edge="1" parent="1">
          <mxGeometry width="50" height="50" relative="1" as="geometry">
            <mxPoint x="1017" y="789" as="sourcePoint" />
            <mxPoint x="879" y="520" as="targetPoint" />
            <Array as="points">
              <mxPoint x="1017" y="820" />
              <mxPoint x="799" y="820" />
              <mxPoint x="799" y="630" />
              <mxPoint x="879" y="630" />
              <mxPoint x="879" y="520" />
            </Array>
          </mxGeometry>
        </mxCell>
        <mxCell id="GKWICFRkTkMmWIrCqBVy-35" value="" style="endArrow=classic;html=1;rounded=0;fontSize=12;startSize=8;endSize=8;edgeStyle=orthogonalEdgeStyle;exitX=0.367;exitY=0.962;exitDx=0;exitDy=0;exitPerimeter=0;" edge="1" parent="1">
          <mxGeometry width="50" height="50" relative="1" as="geometry">
            <mxPoint x="889" y="789" as="sourcePoint" />
            <mxPoint x="829" y="520" as="targetPoint" />
            <Array as="points">
              <mxPoint x="889" y="800" />
              <mxPoint x="829" y="800" />
              <mxPoint x="829" y="520" />
            </Array>
          </mxGeometry>
        </mxCell>
        <mxCell id="GKWICFRkTkMmWIrCqBVy-37" value="" style="endArrow=classic;html=1;rounded=0;fontSize=12;startSize=8;endSize=8;entryX=0.177;entryY=1.006;entryDx=0;entryDy=0;entryPerimeter=0;edgeStyle=orthogonalEdgeStyle;" edge="1" parent="1">
          <mxGeometry width="50" height="50" relative="1" as="geometry">
            <mxPoint x="1309" y="790" as="sourcePoint" />
            <mxPoint x="892.5450000000001" y="520.18" as="targetPoint" />
            <Array as="points">
              <mxPoint x="1309" y="850" />
              <mxPoint x="1119" y="850" />
              <mxPoint x="1119" y="680" />
              <mxPoint x="893" y="680" />
            </Array>
          </mxGeometry>
        </mxCell>
        <mxCell id="GKWICFRkTkMmWIrCqBVy-38" value="" style="endArrow=classic;html=1;rounded=0;fontSize=12;startSize=8;endSize=8;entryX=0.177;entryY=1.006;entryDx=0;entryDy=0;entryPerimeter=0;edgeStyle=orthogonalEdgeStyle;" edge="1" parent="1">
          <mxGeometry width="50" height="50" relative="1" as="geometry">
            <mxPoint x="1365" y="790" as="sourcePoint" />
            <mxPoint x="949" y="520" as="targetPoint" />
            <Array as="points">
              <mxPoint x="1365" y="830" />
              <mxPoint x="1139" y="830" />
              <mxPoint x="1139" y="660" />
              <mxPoint x="949" y="660" />
            </Array>
          </mxGeometry>
        </mxCell>
        <mxCell id="GKWICFRkTkMmWIrCqBVy-39" value="" style="endArrow=classic;html=1;rounded=0;fontSize=12;startSize=8;endSize=8;entryX=0.177;entryY=1.006;entryDx=0;entryDy=0;entryPerimeter=0;edgeStyle=orthogonalEdgeStyle;" edge="1" parent="1">
          <mxGeometry width="50" height="50" relative="1" as="geometry">
            <mxPoint x="1255" y="790" as="sourcePoint" />
            <mxPoint x="839" y="520" as="targetPoint" />
            <Array as="points">
              <mxPoint x="1255" y="810" />
              <mxPoint x="1109" y="810" />
              <mxPoint x="1109" y="720" />
              <mxPoint x="839" y="720" />
            </Array>
          </mxGeometry>
        </mxCell>
        <mxCell id="GKWICFRkTkMmWIrCqBVy-41" value="" style="endArrow=classic;html=1;rounded=0;fontSize=12;startSize=8;endSize=8;exitX=0.129;exitY=0.997;exitDx=0;exitDy=0;exitPerimeter=0;edgeStyle=orthogonalEdgeStyle;entryX=0.944;entryY=1.028;entryDx=0;entryDy=0;entryPerimeter=0;" edge="1" parent="1" source="Hf3mVa162-UcPIvB1rea-96" target="GKWICFRkTkMmWIrCqBVy-44">
          <mxGeometry width="50" height="50" relative="1" as="geometry">
            <mxPoint x="1399" y="550" as="sourcePoint" />
            <mxPoint x="1351.185" y="520.3" as="targetPoint" />
            <Array as="points">
              <mxPoint x="1480" y="590" />
              <mxPoint x="1300" y="590" />
            </Array>
          </mxGeometry>
        </mxCell>
        <mxCell id="GKWICFRkTkMmWIrCqBVy-43" value="" style="shape=table;startSize=0;container=1;collapsible=0;childLayout=tableLayout;fontSize=16;" vertex="1" parent="1">
          <mxGeometry x="790" y="490" width="540" height="30" as="geometry" />
        </mxCell>
        <mxCell id="GKWICFRkTkMmWIrCqBVy-44" value="" style="shape=tableRow;horizontal=0;startSize=0;swimlaneHead=0;swimlaneBody=0;strokeColor=inherit;top=0;left=0;bottom=0;right=0;collapsible=0;dropTarget=0;fillColor=none;points=[[0,0.5],[1,0.5]];portConstraint=eastwest;fontSize=16;" vertex="1" parent="GKWICFRkTkMmWIrCqBVy-43">
          <mxGeometry width="540" height="30" as="geometry" />
        </mxCell>
        <mxCell id="GKWICFRkTkMmWIrCqBVy-45" value="&lt;u&gt;&lt;font style=&quot;font-size: 12px;&quot;&gt;Sec#&lt;/font&gt;&lt;/u&gt;" style="shape=partialRectangle;html=1;whiteSpace=wrap;connectable=0;strokeColor=inherit;overflow=hidden;fillColor=none;top=0;left=0;bottom=0;right=0;pointerEvents=1;fontSize=16;" vertex="1" parent="GKWICFRkTkMmWIrCqBVy-44">
          <mxGeometry width="60" height="30" as="geometry">
            <mxRectangle width="60" height="30" as="alternateBounds" />
          </mxGeometry>
        </mxCell>
        <mxCell id="GKWICFRkTkMmWIrCqBVy-46" value="&lt;u&gt;&lt;font style=&quot;font-size: 12px;&quot;&gt;C#&lt;/font&gt;&lt;/u&gt;" style="shape=partialRectangle;html=1;whiteSpace=wrap;connectable=0;strokeColor=inherit;overflow=hidden;fillColor=none;top=0;left=0;bottom=0;right=0;pointerEvents=1;fontSize=16;" vertex="1" parent="GKWICFRkTkMmWIrCqBVy-44">
          <mxGeometry x="60" width="60" height="30" as="geometry">
            <mxRectangle width="60" height="30" as="alternateBounds" />
          </mxGeometry>
        </mxCell>
        <mxCell id="GKWICFRkTkMmWIrCqBVy-47" value="&lt;u&gt;&lt;font style=&quot;font-size: 12px;&quot;&gt;D#&lt;/font&gt;&lt;/u&gt;" style="shape=partialRectangle;html=1;whiteSpace=wrap;connectable=0;strokeColor=inherit;overflow=hidden;fillColor=none;top=0;left=0;bottom=0;right=0;pointerEvents=1;fontSize=16;" vertex="1" parent="GKWICFRkTkMmWIrCqBVy-44">
          <mxGeometry x="120" width="60" height="30" as="geometry">
            <mxRectangle width="60" height="30" as="alternateBounds" />
          </mxGeometry>
        </mxCell>
        <mxCell id="GKWICFRkTkMmWIrCqBVy-48" value="&lt;font style=&quot;font-size: 12px;&quot;&gt;Semester&lt;/font&gt;" style="shape=partialRectangle;html=1;whiteSpace=wrap;connectable=0;strokeColor=inherit;overflow=hidden;fillColor=none;top=0;left=0;bottom=0;right=0;pointerEvents=1;fontSize=16;" vertex="1" parent="GKWICFRkTkMmWIrCqBVy-44">
          <mxGeometry x="180" width="60" height="30" as="geometry">
            <mxRectangle width="60" height="30" as="alternateBounds" />
          </mxGeometry>
        </mxCell>
        <mxCell id="GKWICFRkTkMmWIrCqBVy-49" value="&lt;font style=&quot;font-size: 12px;&quot;&gt;Year&lt;/font&gt;" style="shape=partialRectangle;html=1;whiteSpace=wrap;connectable=0;strokeColor=inherit;overflow=hidden;fillColor=none;top=0;left=0;bottom=0;right=0;pointerEvents=1;fontSize=16;" vertex="1" parent="GKWICFRkTkMmWIrCqBVy-44">
          <mxGeometry x="240" width="60" height="30" as="geometry">
            <mxRectangle width="60" height="30" as="alternateBounds" />
          </mxGeometry>
        </mxCell>
        <mxCell id="GKWICFRkTkMmWIrCqBVy-50" value="&lt;font style=&quot;font-size: 12px;&quot;&gt;B#&lt;/font&gt;" style="shape=partialRectangle;html=1;whiteSpace=wrap;connectable=0;strokeColor=inherit;overflow=hidden;fillColor=none;top=0;left=0;bottom=0;right=0;pointerEvents=1;fontSize=16;" vertex="1" parent="GKWICFRkTkMmWIrCqBVy-44">
          <mxGeometry x="300" width="60" height="30" as="geometry">
            <mxRectangle width="60" height="30" as="alternateBounds" />
          </mxGeometry>
        </mxCell>
        <mxCell id="GKWICFRkTkMmWIrCqBVy-51" value="&lt;font style=&quot;font-size: 12px;&quot;&gt;R#&lt;/font&gt;" style="shape=partialRectangle;html=1;whiteSpace=wrap;connectable=0;strokeColor=inherit;overflow=hidden;fillColor=none;top=0;left=0;bottom=0;right=0;pointerEvents=1;fontSize=16;" vertex="1" parent="GKWICFRkTkMmWIrCqBVy-44">
          <mxGeometry x="360" width="60" height="30" as="geometry">
            <mxRectangle width="60" height="30" as="alternateBounds" />
          </mxGeometry>
        </mxCell>
        <mxCell id="GKWICFRkTkMmWIrCqBVy-52" value="&lt;font style=&quot;font-size: 12px;&quot;&gt;E#&lt;/font&gt;" style="shape=partialRectangle;html=1;whiteSpace=wrap;connectable=0;strokeColor=inherit;overflow=hidden;fillColor=none;top=0;left=0;bottom=0;right=0;pointerEvents=1;fontSize=16;" vertex="1" parent="GKWICFRkTkMmWIrCqBVy-44">
          <mxGeometry x="420" width="60" height="30" as="geometry">
            <mxRectangle width="60" height="30" as="alternateBounds" />
          </mxGeometry>
        </mxCell>
        <mxCell id="GKWICFRkTkMmWIrCqBVy-53" value="&lt;font style=&quot;font-size: 12px;&quot;&gt;TID&lt;/font&gt;" style="shape=partialRectangle;html=1;whiteSpace=wrap;connectable=0;strokeColor=inherit;overflow=hidden;fillColor=none;top=0;left=0;bottom=0;right=0;pointerEvents=1;fontSize=16;" vertex="1" parent="GKWICFRkTkMmWIrCqBVy-44">
          <mxGeometry x="480" width="60" height="30" as="geometry">
            <mxRectangle width="60" height="30" as="alternateBounds" />
          </mxGeometry>
        </mxCell>
      </root>
    </mxGraphModel>
  </diagram>
  <diagram id="sA9JhFyv-7jOsDtGBDGn" name="Page-2">
    <mxGraphModel dx="2498" dy="1302" grid="1" gridSize="10" guides="1" tooltips="1" connect="1" arrows="1" fold="1" page="0" pageScale="1" pageWidth="850" pageHeight="1100" math="0" shadow="0">
      <root>
        <mxCell id="0" />
        <mxCell id="1" parent="0" />
        <mxCell id="dL4BqnkMLVhCokqR6R4M-1" value="" style="shape=table;startSize=0;container=1;collapsible=0;childLayout=tableLayout;" vertex="1" parent="1">
          <mxGeometry x="150" y="72" width="130" height="30" as="geometry" />
        </mxCell>
        <mxCell id="dL4BqnkMLVhCokqR6R4M-2" value="" style="shape=tableRow;horizontal=0;startSize=0;swimlaneHead=0;swimlaneBody=0;strokeColor=inherit;top=0;left=0;bottom=0;right=0;collapsible=0;dropTarget=0;fillColor=none;points=[[0,0.5],[1,0.5]];portConstraint=eastwest;" vertex="1" parent="dL4BqnkMLVhCokqR6R4M-1">
          <mxGeometry width="130" height="30" as="geometry" />
        </mxCell>
        <mxCell id="dL4BqnkMLVhCokqR6R4M-3" value="&lt;u&gt;B#&lt;/u&gt;" style="shape=partialRectangle;html=1;whiteSpace=wrap;connectable=0;strokeColor=inherit;overflow=hidden;fillColor=none;top=0;left=0;bottom=0;right=0;pointerEvents=1;" vertex="1" parent="dL4BqnkMLVhCokqR6R4M-2">
          <mxGeometry width="65" height="30" as="geometry">
            <mxRectangle width="65" height="30" as="alternateBounds" />
          </mxGeometry>
        </mxCell>
        <mxCell id="dL4BqnkMLVhCokqR6R4M-4" value="Name" style="shape=partialRectangle;html=1;whiteSpace=wrap;connectable=0;strokeColor=inherit;overflow=hidden;fillColor=none;top=0;left=0;bottom=0;right=0;pointerEvents=1;" vertex="1" parent="dL4BqnkMLVhCokqR6R4M-2">
          <mxGeometry x="65" width="65" height="30" as="geometry">
            <mxRectangle width="65" height="30" as="alternateBounds" />
          </mxGeometry>
        </mxCell>
        <mxCell id="dL4BqnkMLVhCokqR6R4M-5" value="Building" style="text;html=1;align=center;verticalAlign=middle;resizable=0;points=[];autosize=1;strokeColor=none;fillColor=none;" vertex="1" parent="1">
          <mxGeometry x="140" y="50" width="70" height="30" as="geometry" />
        </mxCell>
        <mxCell id="dL4BqnkMLVhCokqR6R4M-6" value="" style="shape=table;startSize=0;container=1;collapsible=0;childLayout=tableLayout;" vertex="1" parent="1">
          <mxGeometry x="360" y="72" width="220" height="30" as="geometry" />
        </mxCell>
        <mxCell id="dL4BqnkMLVhCokqR6R4M-7" value="" style="shape=tableRow;horizontal=0;startSize=0;swimlaneHead=0;swimlaneBody=0;strokeColor=inherit;top=0;left=0;bottom=0;right=0;collapsible=0;dropTarget=0;fillColor=none;points=[[0,0.5],[1,0.5]];portConstraint=eastwest;" vertex="1" parent="dL4BqnkMLVhCokqR6R4M-6">
          <mxGeometry width="220" height="30" as="geometry" />
        </mxCell>
        <mxCell id="dL4BqnkMLVhCokqR6R4M-8" value="&lt;u&gt;B#&lt;/u&gt;" style="shape=partialRectangle;html=1;whiteSpace=wrap;connectable=0;strokeColor=inherit;overflow=hidden;fillColor=none;top=0;left=0;bottom=0;right=0;pointerEvents=1;" vertex="1" parent="dL4BqnkMLVhCokqR6R4M-7">
          <mxGeometry width="55" height="30" as="geometry">
            <mxRectangle width="55" height="30" as="alternateBounds" />
          </mxGeometry>
        </mxCell>
        <mxCell id="dL4BqnkMLVhCokqR6R4M-9" value="&lt;u&gt;R#&lt;/u&gt;" style="shape=partialRectangle;html=1;whiteSpace=wrap;connectable=0;strokeColor=inherit;overflow=hidden;fillColor=none;top=0;left=0;bottom=0;right=0;pointerEvents=1;" vertex="1" parent="dL4BqnkMLVhCokqR6R4M-7">
          <mxGeometry x="55" width="55" height="30" as="geometry">
            <mxRectangle width="55" height="30" as="alternateBounds" />
          </mxGeometry>
        </mxCell>
        <mxCell id="dL4BqnkMLVhCokqR6R4M-10" value="Size" style="shape=partialRectangle;html=1;whiteSpace=wrap;connectable=0;strokeColor=inherit;overflow=hidden;fillColor=none;top=0;left=0;bottom=0;right=0;pointerEvents=1;" vertex="1" parent="dL4BqnkMLVhCokqR6R4M-7">
          <mxGeometry x="110" width="55" height="30" as="geometry">
            <mxRectangle width="55" height="30" as="alternateBounds" />
          </mxGeometry>
        </mxCell>
        <mxCell id="dL4BqnkMLVhCokqR6R4M-11" value="D#" style="shape=partialRectangle;html=1;whiteSpace=wrap;connectable=0;strokeColor=inherit;overflow=hidden;fillColor=none;top=0;left=0;bottom=0;right=0;pointerEvents=1;" vertex="1" parent="dL4BqnkMLVhCokqR6R4M-7">
          <mxGeometry x="165" width="55" height="30" as="geometry">
            <mxRectangle width="55" height="30" as="alternateBounds" />
          </mxGeometry>
        </mxCell>
        <mxCell id="dL4BqnkMLVhCokqR6R4M-12" value="Office" style="text;html=1;align=center;verticalAlign=middle;resizable=0;points=[];autosize=1;strokeColor=none;fillColor=none;" vertex="1" parent="1">
          <mxGeometry x="360" y="50" width="50" height="30" as="geometry" />
        </mxCell>
        <mxCell id="dL4BqnkMLVhCokqR6R4M-13" value="" style="shape=table;startSize=0;container=1;collapsible=0;childLayout=tableLayout;" vertex="1" parent="1">
          <mxGeometry x="789" y="62" width="160" height="30" as="geometry" />
        </mxCell>
        <mxCell id="dL4BqnkMLVhCokqR6R4M-14" value="" style="shape=tableRow;horizontal=0;startSize=0;swimlaneHead=0;swimlaneBody=0;strokeColor=inherit;top=0;left=0;bottom=0;right=0;collapsible=0;dropTarget=0;fillColor=none;points=[[0,0.5],[1,0.5]];portConstraint=eastwest;" vertex="1" parent="dL4BqnkMLVhCokqR6R4M-13">
          <mxGeometry width="160" height="30" as="geometry" />
        </mxCell>
        <mxCell id="dL4BqnkMLVhCokqR6R4M-15" value="&lt;u&gt;B#&lt;/u&gt;" style="shape=partialRectangle;html=1;whiteSpace=wrap;connectable=0;strokeColor=inherit;overflow=hidden;fillColor=none;top=0;left=0;bottom=0;right=0;pointerEvents=1;" vertex="1" parent="dL4BqnkMLVhCokqR6R4M-14">
          <mxGeometry width="53" height="30" as="geometry">
            <mxRectangle width="53" height="30" as="alternateBounds" />
          </mxGeometry>
        </mxCell>
        <mxCell id="dL4BqnkMLVhCokqR6R4M-16" value="&lt;u&gt;R#&lt;/u&gt;" style="shape=partialRectangle;html=1;whiteSpace=wrap;connectable=0;strokeColor=inherit;overflow=hidden;fillColor=none;top=0;left=0;bottom=0;right=0;pointerEvents=1;" vertex="1" parent="dL4BqnkMLVhCokqR6R4M-14">
          <mxGeometry x="53" width="54" height="30" as="geometry">
            <mxRectangle width="54" height="30" as="alternateBounds" />
          </mxGeometry>
        </mxCell>
        <mxCell id="dL4BqnkMLVhCokqR6R4M-17" value="Seats" style="shape=partialRectangle;html=1;whiteSpace=wrap;connectable=0;strokeColor=inherit;overflow=hidden;fillColor=none;top=0;left=0;bottom=0;right=0;pointerEvents=1;" vertex="1" parent="dL4BqnkMLVhCokqR6R4M-14">
          <mxGeometry x="107" width="53" height="30" as="geometry">
            <mxRectangle width="53" height="30" as="alternateBounds" />
          </mxGeometry>
        </mxCell>
        <mxCell id="dL4BqnkMLVhCokqR6R4M-18" value="Classroom" style="text;html=1;align=center;verticalAlign=middle;resizable=0;points=[];autosize=1;strokeColor=none;fillColor=none;" vertex="1" parent="1">
          <mxGeometry x="779" y="40" width="80" height="30" as="geometry" />
        </mxCell>
        <mxCell id="dL4BqnkMLVhCokqR6R4M-19" value="" style="shape=table;startSize=0;container=1;collapsible=0;childLayout=tableLayout;" vertex="1" parent="1">
          <mxGeometry x="50" y="260" width="300" height="30" as="geometry" />
        </mxCell>
        <mxCell id="dL4BqnkMLVhCokqR6R4M-20" value="" style="shape=tableRow;horizontal=0;startSize=0;swimlaneHead=0;swimlaneBody=0;strokeColor=inherit;top=0;left=0;bottom=0;right=0;collapsible=0;dropTarget=0;fillColor=none;points=[[0,0.5],[1,0.5]];portConstraint=eastwest;" vertex="1" parent="dL4BqnkMLVhCokqR6R4M-19">
          <mxGeometry width="300" height="30" as="geometry" />
        </mxCell>
        <mxCell id="dL4BqnkMLVhCokqR6R4M-21" value="&lt;u&gt;E#&lt;/u&gt;" style="shape=partialRectangle;html=1;whiteSpace=wrap;connectable=0;strokeColor=inherit;overflow=hidden;fillColor=none;top=0;left=0;bottom=0;right=0;pointerEvents=1;" vertex="1" parent="dL4BqnkMLVhCokqR6R4M-20">
          <mxGeometry width="60" height="30" as="geometry">
            <mxRectangle width="60" height="30" as="alternateBounds" />
          </mxGeometry>
        </mxCell>
        <mxCell id="dL4BqnkMLVhCokqR6R4M-22" value="Name" style="shape=partialRectangle;html=1;whiteSpace=wrap;connectable=0;strokeColor=inherit;overflow=hidden;fillColor=none;top=0;left=0;bottom=0;right=0;pointerEvents=1;" vertex="1" parent="dL4BqnkMLVhCokqR6R4M-20">
          <mxGeometry x="60" width="60" height="30" as="geometry">
            <mxRectangle width="60" height="30" as="alternateBounds" />
          </mxGeometry>
        </mxCell>
        <mxCell id="dL4BqnkMLVhCokqR6R4M-23" value="D#" style="shape=partialRectangle;html=1;whiteSpace=wrap;connectable=0;strokeColor=inherit;overflow=hidden;fillColor=none;top=0;left=0;bottom=0;right=0;pointerEvents=1;" vertex="1" parent="dL4BqnkMLVhCokqR6R4M-20">
          <mxGeometry x="120" width="60" height="30" as="geometry">
            <mxRectangle width="60" height="30" as="alternateBounds" />
          </mxGeometry>
        </mxCell>
        <mxCell id="dL4BqnkMLVhCokqR6R4M-24" value="R#" style="shape=partialRectangle;html=1;whiteSpace=wrap;connectable=0;strokeColor=inherit;overflow=hidden;fillColor=none;top=0;left=0;bottom=0;right=0;pointerEvents=1;" vertex="1" parent="dL4BqnkMLVhCokqR6R4M-20">
          <mxGeometry x="180" width="60" height="30" as="geometry">
            <mxRectangle width="60" height="30" as="alternateBounds" />
          </mxGeometry>
        </mxCell>
        <mxCell id="dL4BqnkMLVhCokqR6R4M-25" value="B#" style="shape=partialRectangle;html=1;whiteSpace=wrap;connectable=0;strokeColor=inherit;overflow=hidden;fillColor=none;top=0;left=0;bottom=0;right=0;pointerEvents=1;" vertex="1" parent="dL4BqnkMLVhCokqR6R4M-20">
          <mxGeometry x="240" width="60" height="30" as="geometry">
            <mxRectangle width="60" height="30" as="alternateBounds" />
          </mxGeometry>
        </mxCell>
        <mxCell id="dL4BqnkMLVhCokqR6R4M-26" value="Chair" style="text;html=1;align=center;verticalAlign=middle;resizable=0;points=[];autosize=1;strokeColor=none;fillColor=none;" vertex="1" parent="1">
          <mxGeometry x="40" y="230" width="50" height="30" as="geometry" />
        </mxCell>
        <mxCell id="dL4BqnkMLVhCokqR6R4M-27" value="" style="shape=table;startSize=0;container=1;collapsible=0;childLayout=tableLayout;" vertex="1" parent="1">
          <mxGeometry x="-130" y="260" width="150" height="30" as="geometry" />
        </mxCell>
        <mxCell id="dL4BqnkMLVhCokqR6R4M-28" value="" style="shape=tableRow;horizontal=0;startSize=0;swimlaneHead=0;swimlaneBody=0;strokeColor=inherit;top=0;left=0;bottom=0;right=0;collapsible=0;dropTarget=0;fillColor=none;points=[[0,0.5],[1,0.5]];portConstraint=eastwest;" vertex="1" parent="dL4BqnkMLVhCokqR6R4M-27">
          <mxGeometry width="150" height="30" as="geometry" />
        </mxCell>
        <mxCell id="dL4BqnkMLVhCokqR6R4M-29" value="&lt;u&gt;E#&lt;/u&gt;" style="shape=partialRectangle;html=1;whiteSpace=wrap;connectable=0;strokeColor=inherit;overflow=hidden;fillColor=none;top=0;left=0;bottom=0;right=0;pointerEvents=1;" vertex="1" parent="dL4BqnkMLVhCokqR6R4M-28">
          <mxGeometry width="75" height="30" as="geometry">
            <mxRectangle width="75" height="30" as="alternateBounds" />
          </mxGeometry>
        </mxCell>
        <mxCell id="dL4BqnkMLVhCokqR6R4M-30" value="&lt;u&gt;PhoneNum&lt;/u&gt;" style="shape=partialRectangle;html=1;whiteSpace=wrap;connectable=0;strokeColor=inherit;overflow=hidden;fillColor=none;top=0;left=0;bottom=0;right=0;pointerEvents=1;" vertex="1" parent="dL4BqnkMLVhCokqR6R4M-28">
          <mxGeometry x="75" width="75" height="30" as="geometry">
            <mxRectangle width="75" height="30" as="alternateBounds" />
          </mxGeometry>
        </mxCell>
        <mxCell id="dL4BqnkMLVhCokqR6R4M-31" value="ChairPhone" style="text;html=1;align=center;verticalAlign=middle;resizable=0;points=[];autosize=1;strokeColor=none;fillColor=none;" vertex="1" parent="1">
          <mxGeometry x="-130" y="230" width="90" height="30" as="geometry" />
        </mxCell>
        <mxCell id="dL4BqnkMLVhCokqR6R4M-32" value="" style="shape=table;startSize=0;container=1;collapsible=0;childLayout=tableLayout;" vertex="1" parent="1">
          <mxGeometry x="670" y="250" width="120" height="30" as="geometry" />
        </mxCell>
        <mxCell id="dL4BqnkMLVhCokqR6R4M-33" value="" style="shape=tableRow;horizontal=0;startSize=0;swimlaneHead=0;swimlaneBody=0;strokeColor=inherit;top=0;left=0;bottom=0;right=0;collapsible=0;dropTarget=0;fillColor=none;points=[[0,0.5],[1,0.5]];portConstraint=eastwest;" vertex="1" parent="dL4BqnkMLVhCokqR6R4M-32">
          <mxGeometry width="120" height="30" as="geometry" />
        </mxCell>
        <mxCell id="dL4BqnkMLVhCokqR6R4M-34" value="&lt;u&gt;D#&lt;/u&gt;" style="shape=partialRectangle;html=1;whiteSpace=wrap;connectable=0;strokeColor=inherit;overflow=hidden;fillColor=none;top=0;left=0;bottom=0;right=0;pointerEvents=1;" vertex="1" parent="dL4BqnkMLVhCokqR6R4M-33">
          <mxGeometry width="60" height="30" as="geometry">
            <mxRectangle width="60" height="30" as="alternateBounds" />
          </mxGeometry>
        </mxCell>
        <mxCell id="dL4BqnkMLVhCokqR6R4M-35" value="Name" style="shape=partialRectangle;html=1;whiteSpace=wrap;connectable=0;strokeColor=inherit;overflow=hidden;fillColor=none;top=0;left=0;bottom=0;right=0;pointerEvents=1;" vertex="1" parent="dL4BqnkMLVhCokqR6R4M-33">
          <mxGeometry x="60" width="60" height="30" as="geometry">
            <mxRectangle width="60" height="30" as="alternateBounds" />
          </mxGeometry>
        </mxCell>
        <mxCell id="dL4BqnkMLVhCokqR6R4M-36" value="Department" style="text;html=1;align=center;verticalAlign=middle;resizable=0;points=[];autosize=1;strokeColor=none;fillColor=none;" vertex="1" parent="1">
          <mxGeometry x="660" y="220" width="90" height="30" as="geometry" />
        </mxCell>
        <mxCell id="dL4BqnkMLVhCokqR6R4M-37" value="" style="shape=table;startSize=0;container=1;collapsible=0;childLayout=tableLayout;" vertex="1" parent="1">
          <mxGeometry x="909" y="250" width="300" height="30" as="geometry" />
        </mxCell>
        <mxCell id="dL4BqnkMLVhCokqR6R4M-38" value="" style="shape=tableRow;horizontal=0;startSize=0;swimlaneHead=0;swimlaneBody=0;strokeColor=inherit;top=0;left=0;bottom=0;right=0;collapsible=0;dropTarget=0;fillColor=none;points=[[0,0.5],[1,0.5]];portConstraint=eastwest;" vertex="1" parent="dL4BqnkMLVhCokqR6R4M-37">
          <mxGeometry width="300" height="30" as="geometry" />
        </mxCell>
        <mxCell id="dL4BqnkMLVhCokqR6R4M-39" value="&lt;u style=&quot;border-color: var(--border-color);&quot;&gt;D#&lt;/u&gt;" style="shape=partialRectangle;html=1;whiteSpace=wrap;connectable=0;strokeColor=inherit;overflow=hidden;fillColor=none;top=0;left=0;bottom=0;right=0;pointerEvents=1;" vertex="1" parent="dL4BqnkMLVhCokqR6R4M-38">
          <mxGeometry width="60" height="30" as="geometry">
            <mxRectangle width="60" height="30" as="alternateBounds" />
          </mxGeometry>
        </mxCell>
        <mxCell id="dL4BqnkMLVhCokqR6R4M-40" value="&lt;u&gt;C#&lt;/u&gt;" style="shape=partialRectangle;html=1;whiteSpace=wrap;connectable=0;strokeColor=inherit;overflow=hidden;fillColor=none;top=0;left=0;bottom=0;right=0;pointerEvents=1;" vertex="1" parent="dL4BqnkMLVhCokqR6R4M-38">
          <mxGeometry x="60" width="60" height="30" as="geometry">
            <mxRectangle width="60" height="30" as="alternateBounds" />
          </mxGeometry>
        </mxCell>
        <mxCell id="dL4BqnkMLVhCokqR6R4M-41" value="Name" style="shape=partialRectangle;html=1;whiteSpace=wrap;connectable=0;strokeColor=inherit;overflow=hidden;fillColor=none;top=0;left=0;bottom=0;right=0;pointerEvents=1;" vertex="1" parent="dL4BqnkMLVhCokqR6R4M-38">
          <mxGeometry x="120" width="60" height="30" as="geometry">
            <mxRectangle width="60" height="30" as="alternateBounds" />
          </mxGeometry>
        </mxCell>
        <mxCell id="dL4BqnkMLVhCokqR6R4M-42" value="Credit" style="shape=partialRectangle;html=1;whiteSpace=wrap;connectable=0;strokeColor=inherit;overflow=hidden;fillColor=none;top=0;left=0;bottom=0;right=0;pointerEvents=1;" vertex="1" parent="dL4BqnkMLVhCokqR6R4M-38">
          <mxGeometry x="180" width="60" height="30" as="geometry">
            <mxRectangle width="60" height="30" as="alternateBounds" />
          </mxGeometry>
        </mxCell>
        <mxCell id="dL4BqnkMLVhCokqR6R4M-43" value="Type" style="shape=partialRectangle;html=1;whiteSpace=wrap;connectable=0;strokeColor=inherit;overflow=hidden;fillColor=none;top=0;left=0;bottom=0;right=0;pointerEvents=1;" vertex="1" parent="dL4BqnkMLVhCokqR6R4M-38">
          <mxGeometry x="240" width="60" height="30" as="geometry">
            <mxRectangle width="60" height="30" as="alternateBounds" />
          </mxGeometry>
        </mxCell>
        <mxCell id="dL4BqnkMLVhCokqR6R4M-44" value="Course" style="text;html=1;align=center;verticalAlign=middle;resizable=0;points=[];autosize=1;strokeColor=none;fillColor=none;" vertex="1" parent="1">
          <mxGeometry x="899" y="220" width="60" height="30" as="geometry" />
        </mxCell>
        <mxCell id="dL4BqnkMLVhCokqR6R4M-45" value="" style="shape=table;startSize=0;container=1;collapsible=0;childLayout=tableLayout;" vertex="1" parent="1">
          <mxGeometry x="1279" y="250" width="240" height="30" as="geometry" />
        </mxCell>
        <mxCell id="dL4BqnkMLVhCokqR6R4M-46" value="" style="shape=tableRow;horizontal=0;startSize=0;swimlaneHead=0;swimlaneBody=0;strokeColor=inherit;top=0;left=0;bottom=0;right=0;collapsible=0;dropTarget=0;fillColor=none;points=[[0,0.5],[1,0.5]];portConstraint=eastwest;" vertex="1" parent="dL4BqnkMLVhCokqR6R4M-45">
          <mxGeometry width="240" height="30" as="geometry" />
        </mxCell>
        <mxCell id="dL4BqnkMLVhCokqR6R4M-47" value="&lt;u&gt;C#&lt;/u&gt;" style="shape=partialRectangle;html=1;whiteSpace=wrap;connectable=0;strokeColor=inherit;overflow=hidden;fillColor=none;top=0;left=0;bottom=0;right=0;pointerEvents=1;" vertex="1" parent="dL4BqnkMLVhCokqR6R4M-46">
          <mxGeometry width="60" height="30" as="geometry">
            <mxRectangle width="60" height="30" as="alternateBounds" />
          </mxGeometry>
        </mxCell>
        <mxCell id="dL4BqnkMLVhCokqR6R4M-48" value="&lt;u&gt;D#&lt;/u&gt;" style="shape=partialRectangle;html=1;whiteSpace=wrap;connectable=0;strokeColor=inherit;overflow=hidden;fillColor=none;top=0;left=0;bottom=0;right=0;pointerEvents=1;" vertex="1" parent="dL4BqnkMLVhCokqR6R4M-46">
          <mxGeometry x="60" width="60" height="30" as="geometry">
            <mxRectangle width="60" height="30" as="alternateBounds" />
          </mxGeometry>
        </mxCell>
        <mxCell id="dL4BqnkMLVhCokqR6R4M-49" value="&lt;u&gt;PD#&lt;/u&gt;" style="shape=partialRectangle;html=1;whiteSpace=wrap;connectable=0;strokeColor=inherit;overflow=hidden;fillColor=none;top=0;left=0;bottom=0;right=0;pointerEvents=1;" vertex="1" parent="dL4BqnkMLVhCokqR6R4M-46">
          <mxGeometry x="120" width="60" height="30" as="geometry">
            <mxRectangle width="60" height="30" as="alternateBounds" />
          </mxGeometry>
        </mxCell>
        <mxCell id="dL4BqnkMLVhCokqR6R4M-50" value="&lt;u&gt;PC#&lt;/u&gt;" style="shape=partialRectangle;html=1;whiteSpace=wrap;connectable=0;strokeColor=inherit;overflow=hidden;fillColor=none;top=0;left=0;bottom=0;right=0;pointerEvents=1;" vertex="1" parent="dL4BqnkMLVhCokqR6R4M-46">
          <mxGeometry x="180" width="60" height="30" as="geometry">
            <mxRectangle width="60" height="30" as="alternateBounds" />
          </mxGeometry>
        </mxCell>
        <mxCell id="dL4BqnkMLVhCokqR6R4M-51" value="PrerequisitCourse" style="text;html=1;align=center;verticalAlign=middle;resizable=0;points=[];autosize=1;strokeColor=none;fillColor=none;" vertex="1" parent="1">
          <mxGeometry x="1269" y="220" width="120" height="30" as="geometry" />
        </mxCell>
        <mxCell id="dL4BqnkMLVhCokqR6R4M-52" value="" style="shape=table;startSize=0;container=1;collapsible=0;childLayout=tableLayout;" vertex="1" parent="1">
          <mxGeometry x="60" y="500" width="360" height="30" as="geometry" />
        </mxCell>
        <mxCell id="dL4BqnkMLVhCokqR6R4M-53" value="" style="shape=tableRow;horizontal=0;startSize=0;swimlaneHead=0;swimlaneBody=0;strokeColor=inherit;top=0;left=0;bottom=0;right=0;collapsible=0;dropTarget=0;fillColor=none;points=[[0,0.5],[1,0.5]];portConstraint=eastwest;" vertex="1" parent="dL4BqnkMLVhCokqR6R4M-52">
          <mxGeometry width="360" height="30" as="geometry" />
        </mxCell>
        <mxCell id="dL4BqnkMLVhCokqR6R4M-54" value="&lt;u&gt;E#&lt;/u&gt;" style="shape=partialRectangle;html=1;whiteSpace=wrap;connectable=0;strokeColor=inherit;overflow=hidden;fillColor=none;top=0;left=0;bottom=0;right=0;pointerEvents=1;" vertex="1" parent="dL4BqnkMLVhCokqR6R4M-53">
          <mxGeometry width="60" height="30" as="geometry">
            <mxRectangle width="60" height="30" as="alternateBounds" />
          </mxGeometry>
        </mxCell>
        <mxCell id="dL4BqnkMLVhCokqR6R4M-55" value="Name" style="shape=partialRectangle;html=1;whiteSpace=wrap;connectable=0;strokeColor=inherit;overflow=hidden;fillColor=none;top=0;left=0;bottom=0;right=0;pointerEvents=1;" vertex="1" parent="dL4BqnkMLVhCokqR6R4M-53">
          <mxGeometry x="60" width="60" height="30" as="geometry">
            <mxRectangle width="60" height="30" as="alternateBounds" />
          </mxGeometry>
        </mxCell>
        <mxCell id="dL4BqnkMLVhCokqR6R4M-56" value="R#" style="shape=partialRectangle;html=1;whiteSpace=wrap;connectable=0;strokeColor=inherit;overflow=hidden;fillColor=none;top=0;left=0;bottom=0;right=0;pointerEvents=1;" vertex="1" parent="dL4BqnkMLVhCokqR6R4M-53">
          <mxGeometry x="120" width="60" height="30" as="geometry">
            <mxRectangle width="60" height="30" as="alternateBounds" />
          </mxGeometry>
        </mxCell>
        <mxCell id="dL4BqnkMLVhCokqR6R4M-57" value="D#" style="shape=partialRectangle;html=1;whiteSpace=wrap;connectable=0;strokeColor=inherit;overflow=hidden;fillColor=none;top=0;left=0;bottom=0;right=0;pointerEvents=1;" vertex="1" parent="dL4BqnkMLVhCokqR6R4M-53">
          <mxGeometry x="180" width="60" height="30" as="geometry">
            <mxRectangle width="60" height="30" as="alternateBounds" />
          </mxGeometry>
        </mxCell>
        <mxCell id="dL4BqnkMLVhCokqR6R4M-58" value="B#" style="shape=partialRectangle;html=1;whiteSpace=wrap;connectable=0;strokeColor=inherit;overflow=hidden;fillColor=none;top=0;left=0;bottom=0;right=0;pointerEvents=1;" vertex="1" parent="dL4BqnkMLVhCokqR6R4M-53">
          <mxGeometry x="240" width="60" height="30" as="geometry">
            <mxRectangle width="60" height="30" as="alternateBounds" />
          </mxGeometry>
        </mxCell>
        <mxCell id="dL4BqnkMLVhCokqR6R4M-135" value="IType" style="shape=partialRectangle;html=1;whiteSpace=wrap;connectable=0;strokeColor=inherit;overflow=hidden;fillColor=none;top=0;left=0;bottom=0;right=0;pointerEvents=1;" vertex="1" parent="dL4BqnkMLVhCokqR6R4M-53">
          <mxGeometry x="300" width="60" height="30" as="geometry">
            <mxRectangle width="60" height="30" as="alternateBounds" />
          </mxGeometry>
        </mxCell>
        <mxCell id="dL4BqnkMLVhCokqR6R4M-59" value="Instructor" style="text;html=1;align=center;verticalAlign=middle;resizable=0;points=[];autosize=1;strokeColor=none;fillColor=none;" vertex="1" parent="1">
          <mxGeometry x="55" y="470" width="70" height="30" as="geometry" />
        </mxCell>
        <mxCell id="dL4BqnkMLVhCokqR6R4M-60" value="" style="shape=table;startSize=0;container=1;collapsible=0;childLayout=tableLayout;" vertex="1" parent="1">
          <mxGeometry x="-110" y="500" width="150" height="30" as="geometry" />
        </mxCell>
        <mxCell id="dL4BqnkMLVhCokqR6R4M-61" value="" style="shape=tableRow;horizontal=0;startSize=0;swimlaneHead=0;swimlaneBody=0;strokeColor=inherit;top=0;left=0;bottom=0;right=0;collapsible=0;dropTarget=0;fillColor=none;points=[[0,0.5],[1,0.5]];portConstraint=eastwest;" vertex="1" parent="dL4BqnkMLVhCokqR6R4M-60">
          <mxGeometry width="150" height="30" as="geometry" />
        </mxCell>
        <mxCell id="dL4BqnkMLVhCokqR6R4M-62" value="&lt;u&gt;E#&lt;/u&gt;" style="shape=partialRectangle;html=1;whiteSpace=wrap;connectable=0;strokeColor=inherit;overflow=hidden;fillColor=none;top=0;left=0;bottom=0;right=0;pointerEvents=1;" vertex="1" parent="dL4BqnkMLVhCokqR6R4M-61">
          <mxGeometry width="75" height="30" as="geometry">
            <mxRectangle width="75" height="30" as="alternateBounds" />
          </mxGeometry>
        </mxCell>
        <mxCell id="dL4BqnkMLVhCokqR6R4M-63" value="&lt;u&gt;PhoneNum&lt;/u&gt;" style="shape=partialRectangle;html=1;whiteSpace=wrap;connectable=0;strokeColor=inherit;overflow=hidden;fillColor=none;top=0;left=0;bottom=0;right=0;pointerEvents=1;" vertex="1" parent="dL4BqnkMLVhCokqR6R4M-61">
          <mxGeometry x="75" width="75" height="30" as="geometry">
            <mxRectangle width="75" height="30" as="alternateBounds" />
          </mxGeometry>
        </mxCell>
        <mxCell id="dL4BqnkMLVhCokqR6R4M-64" value="InstructorPhone" style="text;html=1;align=center;verticalAlign=middle;resizable=0;points=[];autosize=1;strokeColor=none;fillColor=none;" vertex="1" parent="1">
          <mxGeometry x="-109" y="470" width="110" height="30" as="geometry" />
        </mxCell>
        <mxCell id="dL4BqnkMLVhCokqR6R4M-65" value="Section" style="text;html=1;align=center;verticalAlign=middle;resizable=0;points=[];autosize=1;strokeColor=none;fillColor=none;" vertex="1" parent="1">
          <mxGeometry x="789" y="460" width="60" height="30" as="geometry" />
        </mxCell>
        <mxCell id="dL4BqnkMLVhCokqR6R4M-66" value="" style="shape=table;startSize=0;container=1;collapsible=0;childLayout=tableLayout;" vertex="1" parent="1">
          <mxGeometry x="1449" y="480" width="240" height="40" as="geometry" />
        </mxCell>
        <mxCell id="dL4BqnkMLVhCokqR6R4M-67" value="" style="shape=tableRow;horizontal=0;startSize=0;swimlaneHead=0;swimlaneBody=0;strokeColor=inherit;top=0;left=0;bottom=0;right=0;collapsible=0;dropTarget=0;fillColor=none;points=[[0,0.5],[1,0.5]];portConstraint=eastwest;" vertex="1" parent="dL4BqnkMLVhCokqR6R4M-66">
          <mxGeometry width="240" height="40" as="geometry" />
        </mxCell>
        <mxCell id="dL4BqnkMLVhCokqR6R4M-68" value="&lt;u&gt;TID&lt;/u&gt;" style="shape=partialRectangle;html=1;whiteSpace=wrap;connectable=0;strokeColor=inherit;overflow=hidden;fillColor=none;top=0;left=0;bottom=0;right=0;pointerEvents=1;" vertex="1" parent="dL4BqnkMLVhCokqR6R4M-67">
          <mxGeometry width="60" height="40" as="geometry">
            <mxRectangle width="60" height="40" as="alternateBounds" />
          </mxGeometry>
        </mxCell>
        <mxCell id="dL4BqnkMLVhCokqR6R4M-69" value="Day" style="shape=partialRectangle;html=1;whiteSpace=wrap;connectable=0;strokeColor=inherit;overflow=hidden;fillColor=none;top=0;left=0;bottom=0;right=0;pointerEvents=1;" vertex="1" parent="dL4BqnkMLVhCokqR6R4M-67">
          <mxGeometry x="60" width="60" height="40" as="geometry">
            <mxRectangle width="60" height="40" as="alternateBounds" />
          </mxGeometry>
        </mxCell>
        <mxCell id="dL4BqnkMLVhCokqR6R4M-70" value="Start" style="shape=partialRectangle;html=1;whiteSpace=wrap;connectable=0;strokeColor=inherit;overflow=hidden;fillColor=none;top=0;left=0;bottom=0;right=0;pointerEvents=1;" vertex="1" parent="dL4BqnkMLVhCokqR6R4M-67">
          <mxGeometry x="120" width="60" height="40" as="geometry">
            <mxRectangle width="60" height="40" as="alternateBounds" />
          </mxGeometry>
        </mxCell>
        <mxCell id="dL4BqnkMLVhCokqR6R4M-71" value="End" style="shape=partialRectangle;html=1;whiteSpace=wrap;connectable=0;strokeColor=inherit;overflow=hidden;fillColor=none;top=0;left=0;bottom=0;right=0;pointerEvents=1;" vertex="1" parent="dL4BqnkMLVhCokqR6R4M-67">
          <mxGeometry x="180" width="60" height="40" as="geometry">
            <mxRectangle width="60" height="40" as="alternateBounds" />
          </mxGeometry>
        </mxCell>
        <mxCell id="dL4BqnkMLVhCokqR6R4M-72" value="Timeslot" style="text;html=1;align=center;verticalAlign=middle;resizable=0;points=[];autosize=1;strokeColor=none;fillColor=none;" vertex="1" parent="1">
          <mxGeometry x="1439" y="450" width="70" height="30" as="geometry" />
        </mxCell>
        <mxCell id="dL4BqnkMLVhCokqR6R4M-73" value="" style="shape=table;startSize=0;container=1;collapsible=0;childLayout=tableLayout;" vertex="1" parent="1">
          <mxGeometry x="859" y="760" width="240" height="30" as="geometry" />
        </mxCell>
        <mxCell id="dL4BqnkMLVhCokqR6R4M-74" value="" style="shape=tableRow;horizontal=0;startSize=0;swimlaneHead=0;swimlaneBody=0;strokeColor=inherit;top=0;left=0;bottom=0;right=0;collapsible=0;dropTarget=0;fillColor=none;points=[[0,0.5],[1,0.5]];portConstraint=eastwest;" vertex="1" parent="dL4BqnkMLVhCokqR6R4M-73">
          <mxGeometry width="240" height="30" as="geometry" />
        </mxCell>
        <mxCell id="dL4BqnkMLVhCokqR6R4M-75" value="&lt;u&gt;Sec#&lt;/u&gt;" style="shape=partialRectangle;html=1;whiteSpace=wrap;connectable=0;strokeColor=inherit;overflow=hidden;fillColor=none;top=0;left=0;bottom=0;right=0;pointerEvents=1;" vertex="1" parent="dL4BqnkMLVhCokqR6R4M-74">
          <mxGeometry width="60" height="30" as="geometry">
            <mxRectangle width="60" height="30" as="alternateBounds" />
          </mxGeometry>
        </mxCell>
        <mxCell id="dL4BqnkMLVhCokqR6R4M-76" value="&lt;u&gt;D#&lt;/u&gt;" style="shape=partialRectangle;html=1;whiteSpace=wrap;connectable=0;strokeColor=inherit;overflow=hidden;fillColor=none;top=0;left=0;bottom=0;right=0;pointerEvents=1;" vertex="1" parent="dL4BqnkMLVhCokqR6R4M-74">
          <mxGeometry x="60" width="60" height="30" as="geometry">
            <mxRectangle width="60" height="30" as="alternateBounds" />
          </mxGeometry>
        </mxCell>
        <mxCell id="dL4BqnkMLVhCokqR6R4M-77" value="&lt;u&gt;C#&lt;/u&gt;" style="shape=partialRectangle;html=1;whiteSpace=wrap;connectable=0;strokeColor=inherit;overflow=hidden;fillColor=none;top=0;left=0;bottom=0;right=0;pointerEvents=1;" vertex="1" parent="dL4BqnkMLVhCokqR6R4M-74">
          <mxGeometry x="120" width="60" height="30" as="geometry">
            <mxRectangle width="60" height="30" as="alternateBounds" />
          </mxGeometry>
        </mxCell>
        <mxCell id="dL4BqnkMLVhCokqR6R4M-78" value="&lt;u&gt;S#&lt;/u&gt;" style="shape=partialRectangle;html=1;whiteSpace=wrap;connectable=0;strokeColor=inherit;overflow=hidden;fillColor=none;top=0;left=0;bottom=0;right=0;pointerEvents=1;" vertex="1" parent="dL4BqnkMLVhCokqR6R4M-74">
          <mxGeometry x="180" width="60" height="30" as="geometry">
            <mxRectangle width="60" height="30" as="alternateBounds" />
          </mxGeometry>
        </mxCell>
        <mxCell id="dL4BqnkMLVhCokqR6R4M-79" value="SS" style="text;html=1;align=center;verticalAlign=middle;resizable=0;points=[];autosize=1;strokeColor=none;fillColor=none;" vertex="1" parent="1">
          <mxGeometry x="849" y="730" width="40" height="30" as="geometry" />
        </mxCell>
        <mxCell id="dL4BqnkMLVhCokqR6R4M-80" value="" style="shape=table;startSize=0;container=1;collapsible=0;childLayout=tableLayout;" vertex="1" parent="1">
          <mxGeometry x="430" y="760" width="240" height="30" as="geometry" />
        </mxCell>
        <mxCell id="dL4BqnkMLVhCokqR6R4M-81" value="" style="shape=tableRow;horizontal=0;startSize=0;swimlaneHead=0;swimlaneBody=0;strokeColor=inherit;top=0;left=0;bottom=0;right=0;collapsible=0;dropTarget=0;fillColor=none;points=[[0,0.5],[1,0.5]];portConstraint=eastwest;" vertex="1" parent="dL4BqnkMLVhCokqR6R4M-80">
          <mxGeometry width="240" height="30" as="geometry" />
        </mxCell>
        <mxCell id="dL4BqnkMLVhCokqR6R4M-136" value="SType" style="shape=partialRectangle;html=1;whiteSpace=wrap;connectable=0;strokeColor=inherit;overflow=hidden;fillColor=none;top=0;left=0;bottom=0;right=0;pointerEvents=1;" vertex="1" parent="dL4BqnkMLVhCokqR6R4M-81">
          <mxGeometry width="60" height="30" as="geometry">
            <mxRectangle width="60" height="30" as="alternateBounds" />
          </mxGeometry>
        </mxCell>
        <mxCell id="dL4BqnkMLVhCokqR6R4M-82" value="&lt;u&gt;S#&lt;/u&gt;" style="shape=partialRectangle;html=1;whiteSpace=wrap;connectable=0;strokeColor=inherit;overflow=hidden;fillColor=none;top=0;left=0;bottom=0;right=0;pointerEvents=1;" vertex="1" parent="dL4BqnkMLVhCokqR6R4M-81">
          <mxGeometry x="60" width="60" height="30" as="geometry">
            <mxRectangle width="60" height="30" as="alternateBounds" />
          </mxGeometry>
        </mxCell>
        <mxCell id="dL4BqnkMLVhCokqR6R4M-83" value="Name" style="shape=partialRectangle;html=1;whiteSpace=wrap;connectable=0;strokeColor=inherit;overflow=hidden;fillColor=none;top=0;left=0;bottom=0;right=0;pointerEvents=1;" vertex="1" parent="dL4BqnkMLVhCokqR6R4M-81">
          <mxGeometry x="120" width="60" height="30" as="geometry">
            <mxRectangle width="60" height="30" as="alternateBounds" />
          </mxGeometry>
        </mxCell>
        <mxCell id="dL4BqnkMLVhCokqR6R4M-84" value="D#" style="shape=partialRectangle;html=1;whiteSpace=wrap;connectable=0;strokeColor=inherit;overflow=hidden;fillColor=none;top=0;left=0;bottom=0;right=0;pointerEvents=1;" vertex="1" parent="dL4BqnkMLVhCokqR6R4M-81">
          <mxGeometry x="180" width="60" height="30" as="geometry">
            <mxRectangle width="60" height="30" as="alternateBounds" />
          </mxGeometry>
        </mxCell>
        <mxCell id="dL4BqnkMLVhCokqR6R4M-85" value="Student" style="text;html=1;align=center;verticalAlign=middle;resizable=0;points=[];autosize=1;strokeColor=none;fillColor=none;" vertex="1" parent="1">
          <mxGeometry x="490" y="730" width="60" height="30" as="geometry" />
        </mxCell>
        <mxCell id="dL4BqnkMLVhCokqR6R4M-86" value="" style="shape=table;startSize=0;container=1;collapsible=0;childLayout=tableLayout;" vertex="1" parent="1">
          <mxGeometry x="1159" y="760" width="245" height="30" as="geometry" />
        </mxCell>
        <mxCell id="dL4BqnkMLVhCokqR6R4M-87" value="" style="shape=tableRow;horizontal=0;startSize=0;swimlaneHead=0;swimlaneBody=0;strokeColor=inherit;top=0;left=0;bottom=0;right=0;collapsible=0;dropTarget=0;fillColor=none;points=[[0,0.5],[1,0.5]];portConstraint=eastwest;" vertex="1" parent="dL4BqnkMLVhCokqR6R4M-86">
          <mxGeometry width="245" height="30" as="geometry" />
        </mxCell>
        <mxCell id="dL4BqnkMLVhCokqR6R4M-88" value="&lt;u&gt;Name&lt;/u&gt;" style="shape=partialRectangle;html=1;whiteSpace=wrap;connectable=0;strokeColor=inherit;overflow=hidden;fillColor=none;top=0;left=0;bottom=0;right=0;pointerEvents=1;" vertex="1" parent="dL4BqnkMLVhCokqR6R4M-87">
          <mxGeometry width="61" height="30" as="geometry">
            <mxRectangle width="61" height="30" as="alternateBounds" />
          </mxGeometry>
        </mxCell>
        <mxCell id="dL4BqnkMLVhCokqR6R4M-89" value="&lt;u&gt;Sec#&lt;/u&gt;" style="shape=partialRectangle;html=1;whiteSpace=wrap;connectable=0;strokeColor=inherit;overflow=hidden;fillColor=none;top=0;left=0;bottom=0;right=0;pointerEvents=1;" vertex="1" parent="dL4BqnkMLVhCokqR6R4M-87">
          <mxGeometry x="61" width="62" height="30" as="geometry">
            <mxRectangle width="62" height="30" as="alternateBounds" />
          </mxGeometry>
        </mxCell>
        <mxCell id="dL4BqnkMLVhCokqR6R4M-90" value="&lt;u&gt;C#&lt;/u&gt;" style="shape=partialRectangle;html=1;whiteSpace=wrap;connectable=0;strokeColor=inherit;overflow=hidden;fillColor=none;top=0;left=0;bottom=0;right=0;pointerEvents=1;" vertex="1" parent="dL4BqnkMLVhCokqR6R4M-87">
          <mxGeometry x="123" width="61" height="30" as="geometry">
            <mxRectangle width="61" height="30" as="alternateBounds" />
          </mxGeometry>
        </mxCell>
        <mxCell id="dL4BqnkMLVhCokqR6R4M-91" value="&lt;u&gt;D#&lt;/u&gt;" style="shape=partialRectangle;html=1;whiteSpace=wrap;connectable=0;strokeColor=inherit;overflow=hidden;fillColor=none;top=0;left=0;bottom=0;right=0;pointerEvents=1;" vertex="1" parent="dL4BqnkMLVhCokqR6R4M-87">
          <mxGeometry x="184" width="61" height="30" as="geometry">
            <mxRectangle width="61" height="30" as="alternateBounds" />
          </mxGeometry>
        </mxCell>
        <mxCell id="dL4BqnkMLVhCokqR6R4M-92" value="Textbook" style="text;html=1;align=center;verticalAlign=middle;resizable=0;points=[];autosize=1;strokeColor=none;fillColor=none;" vertex="1" parent="1">
          <mxGeometry x="1159" y="730" width="70" height="30" as="geometry" />
        </mxCell>
        <mxCell id="dL4BqnkMLVhCokqR6R4M-93" value="" style="endArrow=classic;html=1;rounded=0;fontSize=12;startSize=8;endSize=8;edgeStyle=orthogonalEdgeStyle;exitX=0.09;exitY=1.009;exitDx=0;exitDy=0;exitPerimeter=0;entryX=0.231;entryY=1;entryDx=0;entryDy=0;entryPerimeter=0;" edge="1" parent="1" target="dL4BqnkMLVhCokqR6R4M-2">
          <mxGeometry width="50" height="50" relative="1" as="geometry">
            <mxPoint x="389.79999999999995" y="102.26999999999998" as="sourcePoint" />
            <mxPoint x="190" y="102" as="targetPoint" />
            <Array as="points">
              <mxPoint x="400" y="102" />
              <mxPoint x="400" y="150" />
              <mxPoint x="180" y="150" />
            </Array>
          </mxGeometry>
        </mxCell>
        <mxCell id="dL4BqnkMLVhCokqR6R4M-94" value="" style="endArrow=classic;html=1;rounded=0;fontSize=12;startSize=8;endSize=8;edgeStyle=orthogonalEdgeStyle;exitX=0.064;exitY=0.992;exitDx=0;exitDy=0;exitPerimeter=0;endFill=1;entryX=0.38;entryY=1.014;entryDx=0;entryDy=0;entryPerimeter=0;" edge="1" parent="1" source="dL4BqnkMLVhCokqR6R4M-13" target="dL4BqnkMLVhCokqR6R4M-2">
          <mxGeometry width="50" height="50" relative="1" as="geometry">
            <mxPoint x="749.8" y="102.26999999999998" as="sourcePoint" />
            <mxPoint x="190" y="102" as="targetPoint" />
            <Array as="points">
              <mxPoint x="799" y="102" />
              <mxPoint x="800" y="102" />
              <mxPoint x="800" y="140" />
              <mxPoint x="199" y="140" />
            </Array>
          </mxGeometry>
        </mxCell>
        <mxCell id="dL4BqnkMLVhCokqR6R4M-95" value="" style="endArrow=classic;html=1;rounded=0;fontSize=12;startSize=8;endSize=8;edgeStyle=orthogonalEdgeStyle;exitX=0.09;exitY=1.009;exitDx=0;exitDy=0;exitPerimeter=0;endFill=1;startArrow=none;startFill=0;strokeColor=none;" edge="1" parent="1">
          <mxGeometry width="50" height="50" relative="1" as="geometry">
            <mxPoint x="640" y="280.27" as="sourcePoint" />
            <mxPoint x="80.2" y="280" as="targetPoint" />
            <Array as="points">
              <mxPoint x="640.2" y="328" />
              <mxPoint x="80.2" y="328" />
              <mxPoint x="80.2" y="280" />
            </Array>
          </mxGeometry>
        </mxCell>
        <mxCell id="dL4BqnkMLVhCokqR6R4M-96" value="" style="endArrow=classic;html=1;rounded=0;fontSize=12;startSize=8;endSize=8;edgeStyle=orthogonalEdgeStyle;exitX=0.259;exitY=1.105;exitDx=0;exitDy=0;exitPerimeter=0;" edge="1" parent="1" source="dL4BqnkMLVhCokqR6R4M-28">
          <mxGeometry width="50" height="50" relative="1" as="geometry">
            <mxPoint x="450" y="290" as="sourcePoint" />
            <mxPoint x="80" y="290" as="targetPoint" />
            <Array as="points">
              <mxPoint x="-91" y="290" />
              <mxPoint x="-90" y="338" />
              <mxPoint x="81" y="338" />
              <mxPoint x="81" y="290" />
            </Array>
          </mxGeometry>
        </mxCell>
        <mxCell id="dL4BqnkMLVhCokqR6R4M-97" value="" style="endArrow=classic;html=1;rounded=0;fontSize=12;startSize=8;endSize=8;exitX=0.272;exitY=1.072;exitDx=0;exitDy=0;exitPerimeter=0;edgeStyle=orthogonalEdgeStyle;" edge="1" parent="1">
          <mxGeometry width="50" height="50" relative="1" as="geometry">
            <mxPoint x="196.3200000000001" y="290.00000000000006" as="sourcePoint" />
            <mxPoint x="680" y="280" as="targetPoint" />
            <Array as="points">
              <mxPoint x="196" y="360" />
              <mxPoint x="680" y="360" />
              <mxPoint x="680" y="281" />
            </Array>
          </mxGeometry>
        </mxCell>
        <mxCell id="dL4BqnkMLVhCokqR6R4M-98" value="" style="endArrow=classic;html=1;rounded=0;fontSize=12;startSize=8;endSize=8;exitX=0.272;exitY=1.072;exitDx=0;exitDy=0;exitPerimeter=0;edgeStyle=orthogonalEdgeStyle;entryX=0.043;entryY=1.015;entryDx=0;entryDy=0;entryPerimeter=0;" edge="1" parent="1" target="dL4BqnkMLVhCokqR6R4M-7">
          <mxGeometry width="50" height="50" relative="1" as="geometry">
            <mxPoint x="318.1700000000001" y="290.00000000000006" as="sourcePoint" />
            <mxPoint x="370" y="220" as="targetPoint" />
            <Array as="points">
              <mxPoint x="318" y="310" />
              <mxPoint x="370" y="310" />
              <mxPoint x="370" y="102" />
            </Array>
          </mxGeometry>
        </mxCell>
        <mxCell id="dL4BqnkMLVhCokqR6R4M-99" value="" style="endArrow=classic;html=1;rounded=0;fontSize=12;startSize=8;endSize=8;exitX=0.272;exitY=1.072;exitDx=0;exitDy=0;exitPerimeter=0;edgeStyle=orthogonalEdgeStyle;entryX=0.365;entryY=1.031;entryDx=0;entryDy=0;entryPerimeter=0;" edge="1" parent="1" target="dL4BqnkMLVhCokqR6R4M-7">
          <mxGeometry width="50" height="50" relative="1" as="geometry">
            <mxPoint x="261.1700000000001" y="290.00000000000006" as="sourcePoint" />
            <mxPoint x="440" y="110" as="targetPoint" />
            <Array as="points">
              <mxPoint x="261" y="320" />
              <mxPoint x="440" y="320" />
            </Array>
          </mxGeometry>
        </mxCell>
        <mxCell id="dL4BqnkMLVhCokqR6R4M-100" value="" style="endArrow=classic;html=1;rounded=0;fontSize=12;startSize=8;endSize=8;edgeStyle=orthogonalEdgeStyle;exitX=0.863;exitY=1.018;exitDx=0;exitDy=0;exitPerimeter=0;" edge="1" parent="1">
          <mxGeometry width="50" height="50" relative="1" as="geometry">
            <mxPoint x="539.8300000000002" y="101.99999999999996" as="sourcePoint" />
            <mxPoint x="669.97" y="279.46" as="targetPoint" />
            <Array as="points">
              <mxPoint x="539.97" y="309.46" />
              <mxPoint x="669.97" y="309.46" />
            </Array>
          </mxGeometry>
        </mxCell>
        <mxCell id="dL4BqnkMLVhCokqR6R4M-101" value="" style="endArrow=classic;html=1;rounded=0;fontSize=12;startSize=8;endSize=8;edgeStyle=orthogonalEdgeStyle;exitX=0.034;exitY=1.013;exitDx=0;exitDy=0;exitPerimeter=0;" edge="1" parent="1" source="dL4BqnkMLVhCokqR6R4M-38">
          <mxGeometry width="50" height="50" relative="1" as="geometry">
            <mxPoint x="938" y="281" as="sourcePoint" />
            <mxPoint x="720" y="280" as="targetPoint" />
            <Array as="points">
              <mxPoint x="919" y="350" />
              <mxPoint x="720" y="350" />
              <mxPoint x="720" y="280" />
            </Array>
          </mxGeometry>
        </mxCell>
        <mxCell id="dL4BqnkMLVhCokqR6R4M-102" value="" style="endArrow=classic;html=1;rounded=0;fontSize=12;startSize=8;endSize=8;edgeStyle=orthogonalEdgeStyle;" edge="1" parent="1">
          <mxGeometry width="50" height="50" relative="1" as="geometry">
            <mxPoint x="1369" y="280" as="sourcePoint" />
            <mxPoint x="929" y="280" as="targetPoint" />
            <Array as="points">
              <mxPoint x="1369" y="350" />
              <mxPoint x="929" y="350" />
              <mxPoint x="929" y="280" />
            </Array>
          </mxGeometry>
        </mxCell>
        <mxCell id="dL4BqnkMLVhCokqR6R4M-103" value="" style="endArrow=classic;html=1;rounded=0;fontSize=12;startSize=8;endSize=8;edgeStyle=orthogonalEdgeStyle;entryX=0.239;entryY=0.986;entryDx=0;entryDy=0;entryPerimeter=0;" edge="1" parent="1">
          <mxGeometry width="50" height="50" relative="1" as="geometry">
            <mxPoint x="1329" y="280" as="sourcePoint" />
            <mxPoint x="999" y="280" as="targetPoint" />
            <Array as="points">
              <mxPoint x="1309" y="280" />
              <mxPoint x="1309" y="340" />
              <mxPoint x="999" y="340" />
            </Array>
          </mxGeometry>
        </mxCell>
        <mxCell id="dL4BqnkMLVhCokqR6R4M-104" value="" style="endArrow=classic;html=1;rounded=0;fontSize=12;startSize=8;endSize=8;edgeStyle=orthogonalEdgeStyle;entryX=0.1;entryY=1;entryDx=0;entryDy=0;entryPerimeter=0;exitX=0.621;exitY=1;exitDx=0;exitDy=0;exitPerimeter=0;" edge="1" parent="1" source="dL4BqnkMLVhCokqR6R4M-46" target="dL4BqnkMLVhCokqR6R4M-38">
          <mxGeometry width="50" height="50" relative="1" as="geometry">
            <mxPoint x="1379" y="290" as="sourcePoint" />
            <mxPoint x="949" y="290" as="targetPoint" />
            <Array as="points">
              <mxPoint x="1429" y="280" />
              <mxPoint x="1429" y="360" />
              <mxPoint x="939" y="360" />
            </Array>
          </mxGeometry>
        </mxCell>
        <mxCell id="dL4BqnkMLVhCokqR6R4M-105" value="" style="endArrow=classic;html=1;rounded=0;fontSize=12;startSize=8;endSize=8;edgeStyle=orthogonalEdgeStyle;entryX=0.239;entryY=0.986;entryDx=0;entryDy=0;entryPerimeter=0;exitX=0.827;exitY=1.017;exitDx=0;exitDy=0;exitPerimeter=0;" edge="1" parent="1" source="dL4BqnkMLVhCokqR6R4M-45">
          <mxGeometry width="50" height="50" relative="1" as="geometry">
            <mxPoint x="1344" y="280" as="sourcePoint" />
            <mxPoint x="1014" y="280" as="targetPoint" />
            <Array as="points">
              <mxPoint x="1479" y="281" />
              <mxPoint x="1479" y="330" />
              <mxPoint x="1014" y="330" />
            </Array>
          </mxGeometry>
        </mxCell>
        <mxCell id="dL4BqnkMLVhCokqR6R4M-106" value="" style="endArrow=classic;html=1;rounded=0;fontSize=12;startSize=8;endSize=8;edgeStyle=orthogonalEdgeStyle;entryX=0.27;entryY=0.998;entryDx=0;entryDy=0;entryPerimeter=0;" edge="1" parent="1" target="dL4BqnkMLVhCokqR6R4M-7">
          <mxGeometry width="50" height="50" relative="1" as="geometry">
            <mxPoint x="210" y="530" as="sourcePoint" />
            <mxPoint x="420" y="110" as="targetPoint" />
            <Array as="points">
              <mxPoint x="210" y="580" />
              <mxPoint x="420" y="580" />
            </Array>
          </mxGeometry>
        </mxCell>
        <mxCell id="dL4BqnkMLVhCokqR6R4M-107" value="" style="endArrow=classic;html=1;rounded=0;fontSize=12;startSize=8;endSize=8;edgeStyle=orthogonalEdgeStyle;entryX=0.127;entryY=1.036;entryDx=0;entryDy=0;entryPerimeter=0;" edge="1" parent="1" target="dL4BqnkMLVhCokqR6R4M-7">
          <mxGeometry width="50" height="50" relative="1" as="geometry">
            <mxPoint x="330" y="530" as="sourcePoint" />
            <mxPoint x="458" y="110" as="targetPoint" />
            <Array as="points">
              <mxPoint x="329" y="530" />
              <mxPoint x="329" y="538" />
              <mxPoint x="330" y="538" />
              <mxPoint x="330" y="570" />
              <mxPoint x="450" y="570" />
              <mxPoint x="450" y="330" />
              <mxPoint x="388" y="330" />
            </Array>
          </mxGeometry>
        </mxCell>
        <mxCell id="dL4BqnkMLVhCokqR6R4M-108" value="" style="endArrow=classic;html=1;rounded=0;fontSize=12;startSize=8;endSize=8;exitX=0.272;exitY=1.072;exitDx=0;exitDy=0;exitPerimeter=0;edgeStyle=orthogonalEdgeStyle;" edge="1" parent="1">
          <mxGeometry width="50" height="50" relative="1" as="geometry">
            <mxPoint x="270.0000000000001" y="530" as="sourcePoint" />
            <mxPoint x="690" y="280" as="targetPoint" />
            <Array as="points">
              <mxPoint x="270" y="600" />
              <mxPoint x="690" y="600" />
              <mxPoint x="690" y="280" />
            </Array>
          </mxGeometry>
        </mxCell>
        <mxCell id="dL4BqnkMLVhCokqR6R4M-109" value="" style="endArrow=classic;html=1;rounded=0;fontSize=12;startSize=8;endSize=8;edgeStyle=orthogonalEdgeStyle;" edge="1" parent="1">
          <mxGeometry width="50" height="50" relative="1" as="geometry">
            <mxPoint x="-70" y="530" as="sourcePoint" />
            <mxPoint x="81" y="530" as="targetPoint" />
            <Array as="points">
              <mxPoint x="-70" y="530" />
              <mxPoint x="-70" y="578" />
              <mxPoint x="81" y="578" />
              <mxPoint x="81" y="530" />
            </Array>
          </mxGeometry>
        </mxCell>
        <mxCell id="dL4BqnkMLVhCokqR6R4M-110" value="" style="endArrow=classic;html=1;rounded=0;fontSize=12;startSize=8;endSize=8;edgeStyle=orthogonalEdgeStyle;exitX=0.257;exitY=0.988;exitDx=0;exitDy=0;exitPerimeter=0;" edge="1" parent="1">
          <mxGeometry width="50" height="50" relative="1" as="geometry">
            <mxPoint x="939.3450000000003" y="519.64" as="sourcePoint" />
            <mxPoint x="710" y="280" as="targetPoint" />
            <Array as="points">
              <mxPoint x="939" y="650" />
              <mxPoint x="710" y="650" />
            </Array>
          </mxGeometry>
        </mxCell>
        <mxCell id="dL4BqnkMLVhCokqR6R4M-111" value="" style="endArrow=classic;html=1;rounded=0;fontSize=12;startSize=8;endSize=8;edgeStyle=orthogonalEdgeStyle;exitX=0.125;exitY=1.024;exitDx=0;exitDy=0;exitPerimeter=0;entryX=0.269;entryY=1.033;entryDx=0;entryDy=0;entryPerimeter=0;" edge="1" parent="1">
          <mxGeometry width="50" height="50" relative="1" as="geometry">
            <mxPoint x="862.125" y="520.72" as="sourcePoint" />
            <mxPoint x="982.34" y="280" as="targetPoint" />
            <Array as="points">
              <mxPoint x="862" y="518" />
              <mxPoint x="862" y="619" />
              <mxPoint x="780" y="619" />
              <mxPoint x="780" y="439" />
              <mxPoint x="982" y="439" />
            </Array>
          </mxGeometry>
        </mxCell>
        <mxCell id="dL4BqnkMLVhCokqR6R4M-112" value="" style="endArrow=none;html=1;rounded=0;fontSize=12;startSize=8;endSize=8;edgeStyle=orthogonalEdgeStyle;entryX=0.611;entryY=0.96;entryDx=0;entryDy=0;entryPerimeter=0;exitX=0.224;exitY=1.02;exitDx=0;exitDy=0;exitPerimeter=0;startArrow=classic;startFill=1;endFill=0;" edge="1" parent="1" source="dL4BqnkMLVhCokqR6R4M-14" target="dL4BqnkMLVhCokqR6R4M-125">
          <mxGeometry width="50" height="50" relative="1" as="geometry">
            <mxPoint x="1219" y="140" as="sourcePoint" />
            <mxPoint x="1186.2150000000001" y="520.1200000000001" as="targetPoint" />
            <Array as="points">
              <mxPoint x="825" y="130" />
              <mxPoint x="1229" y="130" />
              <mxPoint x="1229" y="380" />
              <mxPoint x="1410" y="380" />
              <mxPoint x="1410" y="570" />
              <mxPoint x="1120" y="570" />
            </Array>
          </mxGeometry>
        </mxCell>
        <mxCell id="dL4BqnkMLVhCokqR6R4M-113" value="" style="endArrow=none;html=1;rounded=0;fontSize=12;startSize=8;endSize=8;edgeStyle=orthogonalEdgeStyle;entryX=0.721;entryY=0.987;entryDx=0;entryDy=0;entryPerimeter=0;startArrow=classic;startFill=1;endFill=0;" edge="1" parent="1" target="dL4BqnkMLVhCokqR6R4M-125">
          <mxGeometry width="50" height="50" relative="1" as="geometry">
            <mxPoint x="869" y="92" as="sourcePoint" />
            <mxPoint x="1240" y="519" as="targetPoint" />
            <Array as="points">
              <mxPoint x="869" y="120" />
              <mxPoint x="1239" y="120" />
              <mxPoint x="1239" y="390" />
              <mxPoint x="1399" y="390" />
              <mxPoint x="1399" y="560" />
              <mxPoint x="1180" y="560" />
              <mxPoint x="1180" y="520" />
            </Array>
          </mxGeometry>
        </mxCell>
        <mxCell id="dL4BqnkMLVhCokqR6R4M-114" value="" style="endArrow=none;html=1;rounded=0;fontSize=12;startSize=8;endSize=8;exitX=0.108;exitY=0.991;exitDx=0;exitDy=0;exitPerimeter=0;edgeStyle=orthogonalEdgeStyle;endFill=0;startArrow=classic;startFill=1;entryX=0.75;entryY=1.022;entryDx=0;entryDy=0;entryPerimeter=0;" edge="1" parent="1" source="dL4BqnkMLVhCokqR6R4M-53" target="dL4BqnkMLVhCokqR6R4M-125">
          <mxGeometry width="50" height="50" relative="1" as="geometry">
            <mxPoint x="140.0900000000001" y="630" as="sourcePoint" />
            <mxPoint x="1297.3650000000002" y="520.6299999999999" as="targetPoint" />
            <Array as="points">
              <mxPoint x="99" y="700" />
              <mxPoint x="1240" y="700" />
            </Array>
          </mxGeometry>
        </mxCell>
        <mxCell id="dL4BqnkMLVhCokqR6R4M-115" value="" style="endArrow=classic;html=1;rounded=0;fontSize=12;startSize=8;endSize=8;exitX=0.272;exitY=1.072;exitDx=0;exitDy=0;exitPerimeter=0;edgeStyle=orthogonalEdgeStyle;" edge="1" parent="1">
          <mxGeometry width="50" height="50" relative="1" as="geometry">
            <mxPoint x="640.0000000000001" y="790" as="sourcePoint" />
            <mxPoint x="700" y="280" as="targetPoint" />
            <Array as="points">
              <mxPoint x="640" y="800" />
              <mxPoint x="700" y="800" />
              <mxPoint x="700" y="280" />
            </Array>
          </mxGeometry>
        </mxCell>
        <mxCell id="dL4BqnkMLVhCokqR6R4M-116" value="" style="endArrow=classic;html=1;rounded=0;fontSize=12;startSize=8;endSize=8;edgeStyle=orthogonalEdgeStyle;exitX=0.879;exitY=1.028;exitDx=0;exitDy=0;exitPerimeter=0;" edge="1" parent="1" source="dL4BqnkMLVhCokqR6R4M-74">
          <mxGeometry width="50" height="50" relative="1" as="geometry">
            <mxPoint x="1000" y="800" as="sourcePoint" />
            <mxPoint x="518" y="791" as="targetPoint" />
            <Array as="points">
              <mxPoint x="1070" y="840" />
              <mxPoint x="518" y="840" />
            </Array>
          </mxGeometry>
        </mxCell>
        <mxCell id="dL4BqnkMLVhCokqR6R4M-117" value="" style="endArrow=classic;html=1;rounded=0;fontSize=12;startSize=8;endSize=8;entryX=0.221;entryY=1.01;entryDx=0;entryDy=0;entryPerimeter=0;edgeStyle=orthogonalEdgeStyle;exitX=0.367;exitY=0.962;exitDx=0;exitDy=0;exitPerimeter=0;" edge="1" parent="1" source="dL4BqnkMLVhCokqR6R4M-74">
          <mxGeometry width="50" height="50" relative="1" as="geometry">
            <mxPoint x="829" y="810" as="sourcePoint" />
            <mxPoint x="918.2849999999999" y="520.3" as="targetPoint" />
            <Array as="points">
              <mxPoint x="947" y="810" />
              <mxPoint x="819" y="810" />
              <mxPoint x="819" y="640" />
              <mxPoint x="918" y="640" />
            </Array>
          </mxGeometry>
        </mxCell>
        <mxCell id="dL4BqnkMLVhCokqR6R4M-118" value="" style="endArrow=classic;html=1;rounded=0;fontSize=12;startSize=8;endSize=8;edgeStyle=orthogonalEdgeStyle;exitX=0.367;exitY=0.962;exitDx=0;exitDy=0;exitPerimeter=0;" edge="1" parent="1">
          <mxGeometry width="50" height="50" relative="1" as="geometry">
            <mxPoint x="1017" y="789" as="sourcePoint" />
            <mxPoint x="879" y="520" as="targetPoint" />
            <Array as="points">
              <mxPoint x="1017" y="820" />
              <mxPoint x="799" y="820" />
              <mxPoint x="799" y="630" />
              <mxPoint x="879" y="630" />
              <mxPoint x="879" y="520" />
            </Array>
          </mxGeometry>
        </mxCell>
        <mxCell id="dL4BqnkMLVhCokqR6R4M-119" value="" style="endArrow=classic;html=1;rounded=0;fontSize=12;startSize=8;endSize=8;edgeStyle=orthogonalEdgeStyle;exitX=0.367;exitY=0.962;exitDx=0;exitDy=0;exitPerimeter=0;" edge="1" parent="1">
          <mxGeometry width="50" height="50" relative="1" as="geometry">
            <mxPoint x="889" y="789" as="sourcePoint" />
            <mxPoint x="829" y="520" as="targetPoint" />
            <Array as="points">
              <mxPoint x="889" y="800" />
              <mxPoint x="829" y="800" />
              <mxPoint x="829" y="520" />
            </Array>
          </mxGeometry>
        </mxCell>
        <mxCell id="dL4BqnkMLVhCokqR6R4M-120" value="" style="endArrow=classic;html=1;rounded=0;fontSize=12;startSize=8;endSize=8;entryX=0.177;entryY=1.006;entryDx=0;entryDy=0;entryPerimeter=0;edgeStyle=orthogonalEdgeStyle;" edge="1" parent="1">
          <mxGeometry width="50" height="50" relative="1" as="geometry">
            <mxPoint x="1309" y="790" as="sourcePoint" />
            <mxPoint x="892.5450000000001" y="520.18" as="targetPoint" />
            <Array as="points">
              <mxPoint x="1309" y="850" />
              <mxPoint x="1119" y="850" />
              <mxPoint x="1119" y="680" />
              <mxPoint x="893" y="680" />
            </Array>
          </mxGeometry>
        </mxCell>
        <mxCell id="dL4BqnkMLVhCokqR6R4M-121" value="" style="endArrow=classic;html=1;rounded=0;fontSize=12;startSize=8;endSize=8;entryX=0.177;entryY=1.006;entryDx=0;entryDy=0;entryPerimeter=0;edgeStyle=orthogonalEdgeStyle;" edge="1" parent="1">
          <mxGeometry width="50" height="50" relative="1" as="geometry">
            <mxPoint x="1365" y="790" as="sourcePoint" />
            <mxPoint x="949" y="520" as="targetPoint" />
            <Array as="points">
              <mxPoint x="1365" y="830" />
              <mxPoint x="1139" y="830" />
              <mxPoint x="1139" y="660" />
              <mxPoint x="949" y="660" />
            </Array>
          </mxGeometry>
        </mxCell>
        <mxCell id="dL4BqnkMLVhCokqR6R4M-122" value="" style="endArrow=classic;html=1;rounded=0;fontSize=12;startSize=8;endSize=8;entryX=0.177;entryY=1.006;entryDx=0;entryDy=0;entryPerimeter=0;edgeStyle=orthogonalEdgeStyle;" edge="1" parent="1">
          <mxGeometry width="50" height="50" relative="1" as="geometry">
            <mxPoint x="1255" y="790" as="sourcePoint" />
            <mxPoint x="839" y="520" as="targetPoint" />
            <Array as="points">
              <mxPoint x="1255" y="810" />
              <mxPoint x="1109" y="810" />
              <mxPoint x="1109" y="720" />
              <mxPoint x="839" y="720" />
            </Array>
          </mxGeometry>
        </mxCell>
        <mxCell id="dL4BqnkMLVhCokqR6R4M-123" value="" style="endArrow=none;html=1;rounded=0;fontSize=12;startSize=8;endSize=8;exitX=0.129;exitY=0.997;exitDx=0;exitDy=0;exitPerimeter=0;edgeStyle=orthogonalEdgeStyle;entryX=0.85;entryY=1.004;entryDx=0;entryDy=0;entryPerimeter=0;endFill=0;" edge="1" parent="1" source="dL4BqnkMLVhCokqR6R4M-67" target="dL4BqnkMLVhCokqR6R4M-125">
          <mxGeometry width="50" height="50" relative="1" as="geometry">
            <mxPoint x="1399" y="550" as="sourcePoint" />
            <mxPoint x="1351.185" y="520.3" as="targetPoint" />
            <Array as="points">
              <mxPoint x="1480" y="590" />
              <mxPoint x="1300" y="590" />
            </Array>
          </mxGeometry>
        </mxCell>
        <mxCell id="dL4BqnkMLVhCokqR6R4M-124" value="" style="shape=table;startSize=0;container=1;collapsible=0;childLayout=tableLayout;fontSize=16;" vertex="1" parent="1">
          <mxGeometry x="790" y="490" width="600" height="30" as="geometry" />
        </mxCell>
        <mxCell id="dL4BqnkMLVhCokqR6R4M-125" value="" style="shape=tableRow;horizontal=0;startSize=0;swimlaneHead=0;swimlaneBody=0;strokeColor=inherit;top=0;left=0;bottom=0;right=0;collapsible=0;dropTarget=0;fillColor=none;points=[[0,0.5],[1,0.5]];portConstraint=eastwest;fontSize=16;" vertex="1" parent="dL4BqnkMLVhCokqR6R4M-124">
          <mxGeometry width="600" height="30" as="geometry" />
        </mxCell>
        <mxCell id="dL4BqnkMLVhCokqR6R4M-126" value="&lt;u&gt;&lt;font style=&quot;font-size: 12px;&quot;&gt;Sec#&lt;/font&gt;&lt;/u&gt;" style="shape=partialRectangle;html=1;whiteSpace=wrap;connectable=0;strokeColor=inherit;overflow=hidden;fillColor=none;top=0;left=0;bottom=0;right=0;pointerEvents=1;fontSize=16;" vertex="1" parent="dL4BqnkMLVhCokqR6R4M-125">
          <mxGeometry width="60" height="30" as="geometry">
            <mxRectangle width="60" height="30" as="alternateBounds" />
          </mxGeometry>
        </mxCell>
        <mxCell id="dL4BqnkMLVhCokqR6R4M-127" value="&lt;u&gt;&lt;font style=&quot;font-size: 12px;&quot;&gt;C#&lt;/font&gt;&lt;/u&gt;" style="shape=partialRectangle;html=1;whiteSpace=wrap;connectable=0;strokeColor=inherit;overflow=hidden;fillColor=none;top=0;left=0;bottom=0;right=0;pointerEvents=1;fontSize=16;" vertex="1" parent="dL4BqnkMLVhCokqR6R4M-125">
          <mxGeometry x="60" width="60" height="30" as="geometry">
            <mxRectangle width="60" height="30" as="alternateBounds" />
          </mxGeometry>
        </mxCell>
        <mxCell id="dL4BqnkMLVhCokqR6R4M-128" value="&lt;u&gt;&lt;font style=&quot;font-size: 12px;&quot;&gt;D#&lt;/font&gt;&lt;/u&gt;" style="shape=partialRectangle;html=1;whiteSpace=wrap;connectable=0;strokeColor=inherit;overflow=hidden;fillColor=none;top=0;left=0;bottom=0;right=0;pointerEvents=1;fontSize=16;" vertex="1" parent="dL4BqnkMLVhCokqR6R4M-125">
          <mxGeometry x="120" width="60" height="30" as="geometry">
            <mxRectangle width="60" height="30" as="alternateBounds" />
          </mxGeometry>
        </mxCell>
        <mxCell id="dL4BqnkMLVhCokqR6R4M-129" value="&lt;font style=&quot;font-size: 12px;&quot;&gt;Semester&lt;/font&gt;" style="shape=partialRectangle;html=1;whiteSpace=wrap;connectable=0;strokeColor=inherit;overflow=hidden;fillColor=none;top=0;left=0;bottom=0;right=0;pointerEvents=1;fontSize=16;" vertex="1" parent="dL4BqnkMLVhCokqR6R4M-125">
          <mxGeometry x="180" width="60" height="30" as="geometry">
            <mxRectangle width="60" height="30" as="alternateBounds" />
          </mxGeometry>
        </mxCell>
        <mxCell id="dL4BqnkMLVhCokqR6R4M-130" value="&lt;font style=&quot;font-size: 12px;&quot;&gt;Year&lt;/font&gt;" style="shape=partialRectangle;html=1;whiteSpace=wrap;connectable=0;strokeColor=inherit;overflow=hidden;fillColor=none;top=0;left=0;bottom=0;right=0;pointerEvents=1;fontSize=16;" vertex="1" parent="dL4BqnkMLVhCokqR6R4M-125">
          <mxGeometry x="240" width="60" height="30" as="geometry">
            <mxRectangle width="60" height="30" as="alternateBounds" />
          </mxGeometry>
        </mxCell>
        <mxCell id="dL4BqnkMLVhCokqR6R4M-131" value="&lt;font style=&quot;font-size: 12px;&quot;&gt;B#&lt;/font&gt;" style="shape=partialRectangle;html=1;whiteSpace=wrap;connectable=0;strokeColor=inherit;overflow=hidden;fillColor=none;top=0;left=0;bottom=0;right=0;pointerEvents=1;fontSize=16;" vertex="1" parent="dL4BqnkMLVhCokqR6R4M-125">
          <mxGeometry x="300" width="60" height="30" as="geometry">
            <mxRectangle width="60" height="30" as="alternateBounds" />
          </mxGeometry>
        </mxCell>
        <mxCell id="dL4BqnkMLVhCokqR6R4M-132" value="&lt;font style=&quot;font-size: 12px;&quot;&gt;R#&lt;/font&gt;" style="shape=partialRectangle;html=1;whiteSpace=wrap;connectable=0;strokeColor=inherit;overflow=hidden;fillColor=none;top=0;left=0;bottom=0;right=0;pointerEvents=1;fontSize=16;" vertex="1" parent="dL4BqnkMLVhCokqR6R4M-125">
          <mxGeometry x="360" width="60" height="30" as="geometry">
            <mxRectangle width="60" height="30" as="alternateBounds" />
          </mxGeometry>
        </mxCell>
        <mxCell id="dL4BqnkMLVhCokqR6R4M-133" value="&lt;font style=&quot;font-size: 12px;&quot;&gt;E#&lt;/font&gt;" style="shape=partialRectangle;html=1;whiteSpace=wrap;connectable=0;strokeColor=inherit;overflow=hidden;fillColor=none;top=0;left=0;bottom=0;right=0;pointerEvents=1;fontSize=16;" vertex="1" parent="dL4BqnkMLVhCokqR6R4M-125">
          <mxGeometry x="420" width="60" height="30" as="geometry">
            <mxRectangle width="60" height="30" as="alternateBounds" />
          </mxGeometry>
        </mxCell>
        <mxCell id="dL4BqnkMLVhCokqR6R4M-134" value="&lt;font style=&quot;font-size: 12px;&quot;&gt;TID&lt;/font&gt;" style="shape=partialRectangle;html=1;whiteSpace=wrap;connectable=0;strokeColor=inherit;overflow=hidden;fillColor=none;top=0;left=0;bottom=0;right=0;pointerEvents=1;fontSize=16;" vertex="1" parent="dL4BqnkMLVhCokqR6R4M-125">
          <mxGeometry x="480" width="60" height="30" as="geometry">
            <mxRectangle width="60" height="30" as="alternateBounds" />
          </mxGeometry>
        </mxCell>
        <mxCell id="dL4BqnkMLVhCokqR6R4M-137" value="&lt;font style=&quot;font-size: 12px;&quot;&gt;SecType&lt;/font&gt;" style="shape=partialRectangle;html=1;whiteSpace=wrap;connectable=0;strokeColor=inherit;overflow=hidden;fillColor=none;top=0;left=0;bottom=0;right=0;pointerEvents=1;fontSize=16;" vertex="1" parent="dL4BqnkMLVhCokqR6R4M-125">
          <mxGeometry x="540" width="60" height="30" as="geometry">
            <mxRectangle width="60" height="30" as="alternateBounds" />
          </mxGeometry>
        </mxCell>
      </root>
    </mxGraphModel>
  </diagram>
</mxfile>
